<?xml version="1.0" encoding="UTF-8" standalone="no"?>
<!-- Created with Inkscape (http://www.inkscape.org/) -->

<svg
   xmlns:dc="http://purl.org/dc/elements/1.1/"
   xmlns:cc="http://creativecommons.org/ns#"
   xmlns:rdf="http://www.w3.org/1999/02/22-rdf-syntax-ns#"
   xmlns:svg="http://www.w3.org/2000/svg"
   xmlns="http://www.w3.org/2000/svg"
   xmlns:sodipodi="http://sodipodi.sourceforge.net/DTD/sodipodi-0.dtd"
   xmlns:inkscape="http://www.inkscape.org/namespaces/inkscape"
   width="210mm"
   height="297mm"
   viewBox="0 0 744.09448819 1052.3622047"
   id="svg5498"
   version="1.1"
   inkscape:version="0.91 r13725"
   sodipodi:docname="bb8_plonger.svg">
  <defs
     id="defs5500" />
  <sodipodi:namedview
     id="base"
     pagecolor="#ffffff"
     bordercolor="#666666"
     borderopacity="1.0"
     inkscape:pageopacity="0.0"
     inkscape:pageshadow="2"
     inkscape:zoom="0.7"
     inkscape:cx="445.09988"
     inkscape:cy="537.99445"
     inkscape:document-units="px"
     inkscape:current-layer="layer1"
     showgrid="false"
     inkscape:window-width="1325"
     inkscape:window-height="744"
     inkscape:window-x="41"
     inkscape:window-y="24"
     inkscape:window-maximized="1" />
  <metadata
     id="metadata5503">
    <rdf:RDF>
      <cc:Work
         rdf:about="">
        <dc:format>image/svg+xml</dc:format>
        <dc:type
           rdf:resource="http://purl.org/dc/dcmitype/StillImage" />
        <dc:title />
      </cc:Work>
    </rdf:RDF>
  </metadata>
  <g
     inkscape:label="Layer 1"
     inkscape:groupmode="layer"
     id="layer1">
    <path
       style="fill:#000000;fill-opacity:1;stroke:none;stroke-width:1;stroke-opacity:1"
       d="m 360.80914,219.09708 c -9.36354,0.0948 -18.53383,1.63437 -28.17042,4.9837 -25.84308,7.72673 -51.43938,28.85442 -64.49102,54.39625 -8.57495,16.781 -12.20757,30.77255 -12.90446,49.71713 l -0.46799,12.72068 4.0343,3.76776 c 2.21818,2.07295 6.24881,5.03751 8.95655,6.58578 2.70774,1.54828 4.92695,3.05931 4.93187,3.36005 0.005,0.30072 -3.46793,3.16164 -7.71819,6.35554 -31.55226,23.71017 -53.08209,57.57578 -62.0071,97.54199 -2.08443,9.33418 -2.17943,10.74642 -2.16714,31.88563 0.0123,21.04233 0.11652,22.59432 2.17914,31.88564 7.14461,32.18379 22.22083,60.00259 44.44919,82.02727 13.13416,13.01382 24.68325,21.57819 39.94689,29.61922 18.97754,9.99764 37.35788,15.55042 63.76146,19.2609 1.32737,0.18665 9.47231,0.22981 18.10029,0.0959 26.70803,-0.41455 49.62182,-5.91018 72.59321,-17.41179 45.71355,-22.88829 77.22246,-63.36451 88.08479,-113.14785 2.13265,-9.7739 2.22953,-11.15696 2.22953,-32.32933 0,-23.57753 -0.24948,-25.77275 -4.89106,-43.17931 -7.06774,-26.50509 -22.78162,-52.64993 -43.9068,-73.05517 -7.90392,-7.63455 -20.70868,-17.91275 -25.41529,-20.40009 -0.99556,-0.52611 -1.80839,-1.39804 -1.80716,-1.93544 0.002,-0.53739 2.68485,-2.35229 5.96143,-4.03397 3.27657,-1.68169 6.94483,-3.97256 8.15258,-5.09163 l 2.19594,-2.03618 -0.46318,-12.60076 c -0.63853,-17.33673 -4.30695,-32.51264 -11.21249,-46.38346 -16.21988,-32.58003 -43.41757,-53.77928 -77.44347,-60.36567 -7.82948,-1.5062 -15.22865,-2.30658 -22.5114,-2.23283 z m 2.39994,5.53531 c 10.61033,-0.0216 15.11836,0.30958 20.11146,1.47737 8.09129,1.89239 9.25173,2.50265 9.25173,4.87098 0,2.40749 -4.6491,4.80674 -12.56124,6.48265 -7.09813,1.50349 -31.4851,1.49019 -39.08053,-0.0216 -9.37489,-1.86593 -13.9364,-4.95851 -10.74931,-7.28848 0.78281,-0.57228 5.45646,-2.04193 10.38692,-3.26652 7.99016,-1.98454 10.45128,-2.22962 22.64097,-2.25442 z m 34.65746,6.04616 c 1.55367,0.12299 4.30263,1.22982 9.05495,3.54232 8.04468,3.9146 9.92352,6.15874 8.24137,9.84989 -0.4593,1.00783 -1.47695,1.81568 -2.26075,1.79394 -1.38827,-0.0387 -15.08798,-10.85851 -16.36515,-12.92453 -0.35226,-0.56979 -0.46053,-1.32353 -0.24239,-1.67643 0.19904,-0.32198 0.50874,-0.51952 0.97678,-0.57799 0.17551,-0.022 0.37323,-0.0246 0.59519,-0.007 z m -73.47159,1.4318 2.71432,2.63095 c 1.49303,1.44677 2.70502,3.19311 2.69273,3.88048 -0.0123,0.68734 -2.11259,4.14528 -4.66787,7.68421 -2.72732,3.77721 -5.2937,6.51069 -6.21343,6.61936 -4.1298,0.48811 -10.8165,-4.9149 -10.8165,-8.73947 0,-3.0982 1.97148,-4.87688 9.73652,-8.78024 z m 69.37489,4.14189 c 1.9854,0 15.78372,11.41877 15.51078,12.8358 -0.30827,1.60038 -5.23359,3.92074 -12.12208,5.7104 -7.025,1.82516 -12.79576,2.56252 -13.90761,1.77716 -1.14697,-0.81021 -6.08622,-13.84485 -5.56544,-14.6873 0.2209,-0.35737 2.30278,-1.09599 4.62706,-1.64285 2.32428,-0.54688 5.5702,-1.66958 7.21181,-2.49425 1.64159,-0.82469 3.5524,-1.49896 4.24548,-1.49896 z m -59.79915,3.30728 c 1.82441,0.0804 8.91002,1.13141 13.44683,2.02658 1.86608,0.3682 1.90077,0.52574 1.56716,7.50194 -0.20288,4.24257 -0.7725,7.6454 -1.40397,8.4061 -1.15033,1.38578 -1.241,1.39135 -8.79096,0.41252 -8.64588,-1.12093 -13.87432,-2.43525 -14.32041,-3.59748 -0.32643,-0.85048 3.91626,-7.7411 9.06456,-14.72088 0.0231,-0.0313 0.17616,-0.0403 0.43679,-0.0288 z m 29.52879,2.19207 c 4.71697,-0.0659 9.41237,0.26178 10.13252,1.03847 0.56287,0.60706 2.03295,3.92508 3.2663,7.37482 1.74335,4.87624 2.02893,6.48679 1.27917,7.23813 -0.64334,0.6447 -5.10627,1.05361 -13.40123,1.22554 -10.88785,0.22567 -12.49634,0.0941 -12.93565,-1.05046 -0.87105,-2.26949 0.19237,-13.31144 1.39676,-14.50264 0.80687,-0.79803 5.54515,-1.25791 10.26213,-1.32386 z m 56.48724,0.32137 c 1.71504,0.18243 6.37423,4.71342 6.37423,6.36754 0,4.68411 -5.6602,9.70521 -14.8268,13.15478 -5.89555,2.21861 -19.77617,5.22113 -24.14093,5.22113 -4.76176,0 -4.61838,1.98065 0.49679,6.89516 l 4.42548,4.25222 7.56938,-1.63805 c 9.16172,-1.98317 21.12145,-6.1645 26.28169,-9.18795 2.08547,-1.22193 5.46356,-3.78501 7.50699,-5.69601 2.04342,-1.91098 4.11495,-3.47277 4.60308,-3.47277 1.02636,0 8.5494,9.18605 11.81247,14.42348 5.81689,9.33643 13.04786,26.35125 12.17006,28.63832 -0.62702,1.63362 -12.57137,7.15848 -19.81865,9.16637 -3.07947,0.85318 -5.96648,1.77821 -6.41503,2.05536 -0.48502,0.2997 -0.81598,4.84376 -0.81598,11.21453 0,8.79267 -0.22852,10.90317 -1.27436,11.77095 -1.72483,1.43117 -2.08402,0.10388 -2.78878,-2.93794 -0.29903,-1.29066 -1.04551,-5.06198 -1.81287,-8.37973 -1.80118,-7.7876 -2.4066,-12.79666 -5.15179,-13.84678 -1.59108,-0.60863 -8.26735,-0.8303 -16.53009,0.19919 -6.22495,0.7756 -10.8727,1.57185 -11.5631,1.30696 -1.02053,-0.39152 -1.31929,-1.02302 -1.60316,-9.41068 -0.30886,-9.1269 -0.21139,-11.66622 -2.05233,-15.23782 -2.54647,-4.94042 -7.84644,-10.33027 -13.23426,-12.97371 -9.03887,-3.57791 -21.76787,-4.85409 -29.35066,-0.81059 -5.6844,3.08158 -9.57292,6.96462 -12.80047,13.85256 -2.10131,4.48442 -2.21724,6.40205 -2.60154,21.38625 -0.4722,18.41199 1.45903,17.50502 -10.21674,14.38104 -5.54005,-1.48231 -7.84389,-1.78965 -8.61336,-1.1512 -1.30743,1.08484 -2.73482,6.067 -2.16474,7.55231 0.23309,0.60727 3.0152,1.93612 6.18463,2.95472 l 5.76464,1.8515 0.23999,4.62636 0.24239,4.62396 -3.05751,-0.0695 c -3.40087,-0.0779 -14.56275,-2.44427 -16.12996,-3.42 -0.7196,-0.44799 -1.00557,-3.55845 -1.00557,-10.93633 0,-8.41792 -0.23358,-10.50399 -1.27196,-11.36563 -1.92104,-1.59398 -13.00412,-3.17154 -13.98441,-1.9906 -0.42752,0.51502 -0.87969,5.07501 -1.00558,10.13528 -0.18758,7.54034 -0.50106,9.5199 -1.43757,9.20236 -4.0029,-1.35772 -9.03292,-3.26759 -12.87084,-4.82542 -1.90742,-0.77424 -1.27979,-1.80333 -1.60796,-9.78994 -0.22122,-5.38406 -0.70367,-10.0872 -1.07036,-10.45187 -0.3667,-0.36467 -2.15268,-1.38924 -3.96949,-2.276 -5.14457,-2.51097 -5.36991,-3.4408 -2.69033,-11.07303 4.5836,-13.05536 15.80594,-32.70696 19.48507,-34.11848 0.73119,-0.28052 2.2513,0.52571 3.78469,2.00979 5.86831,5.67961 26.72115,12.70714 41.80445,14.08773 l 4.65108,0.42689 3.1919,-4.03876 c 1.756,-2.22103 3.19192,-4.34575 3.19192,-4.72229 0,-1.25288 -1.59592,-1.70369 -10.28372,-2.90196 -16.9171,-2.33329 -28.2566,-6.35088 -32.6487,-11.56949 -2.86364,-3.40252 -2.71921,-5.77435 0.49678,-8.18786 4.49791,-3.37554 4.57344,-3.37841 5.86305,-0.2926 1.60786,3.84736 6.40033,7.16661 13.90041,9.62445 11.72731,3.84313 19.06229,4.71373 39.9685,4.74148 21.75853,0.0289 30.90458,-1.06996 43.6476,-5.24272 8.42029,-2.75728 14.20601,-7.02326 15.31158,-11.28888 0.35594,-1.37332 1.04722,-2.63036 1.53837,-2.79404 0.0859,-0.0286 0.18805,-0.0361 0.30238,-0.024 z m 10.32692,7.8521 c 1.08963,0 4.09188,3.70763 4.09188,5.05325 0,2.02419 -4.98298,6.57059 -10.7109,9.77315 -6.02353,3.36783 -12.07597,5.56598 -21.29701,7.73458 -3.66744,0.86249 -7.32217,1.56849 -8.12138,1.56849 -1.34173,0 -4.11589,-2.30841 -4.11589,-3.42479 0,-0.26558 2.08052,-0.89597 4.62467,-1.40063 19.72779,-3.91319 29.79267,-8.6821 33.20549,-15.73056 0.95185,-1.96585 1.99729,-3.57349 2.32314,-3.57349 z m -137.09143,4.10831 c 0.7274,-0.0618 1.26139,0.43319 1.59596,1.48696 1.79995,5.66998 16.54576,11.85553 34.80383,14.59856 6.50361,0.97708 7.68611,1.76272 5.67345,3.77495 -2.69336,2.69279 -23.33602,-1.13308 -35.23583,-6.53062 -5.42019,-2.45846 -10.2848,-5.97032 -10.8837,-7.85689 -0.3667,-1.15513 0.0351,-2.27742 1.29356,-3.61666 1.10494,-1.17592 2.02532,-1.79458 2.75273,-1.8563 z m 69.71569,19.28008 c 4.6689,0.0533 9.97016,0.8369 12.88284,2.13691 5.04051,2.24969 10.79326,7.68743 13.37723,12.64633 1.88696,3.62125 2.14518,5.1458 2.42153,14.28918 l 0.30959,10.23601 -2.11674,0.96413 c -1.24745,0.56826 -2.73675,2.36816 -3.6287,4.38412 -3.33754,7.54347 -10.75405,13.20886 -18.88748,14.42828 -2.82036,0.42285 -3.99911,0.99775 -4.28388,2.08654 -0.21606,0.82598 -0.62214,1.54748 -0.90237,1.60447 -2.85109,0.58032 -22.81781,-0.43136 -24.09535,-1.22074 -1.56122,-0.96471 -1.29961,-36.79638 0.30959,-42.37108 2.53077,-8.76719 9.21731,-15.79871 17.54353,-18.44787 1.69338,-0.53878 4.26884,-0.7683 7.07021,-0.73628 z m -0.2136,8.12311 c -3.54504,0.037 -7.13953,0.73714 -9.79414,2.09132 -16.36225,8.34681 -14.50357,32.60195 2.93513,38.31074 4.42194,1.44758 12.4462,0.85055 16.52593,-1.23034 1.73432,-0.88459 4.5828,-3.23097 6.32863,-5.21394 8.85337,-10.05581 5.70101,-25.61323 -6.49661,-32.06791 -2.45821,-1.30083 -5.9539,-1.92687 -9.49894,-1.88987 z m 100.18044,23.98557 c 1.8786,0 4.23193,14.05129 2.66873,15.93442 -1.20348,1.44979 -9.86505,5.77186 -18.70748,9.33666 -3.92805,1.58357 -7.26426,2.88038 -7.4134,2.88038 -0.81667,0 -1.0612,-2.98954 -0.85438,-10.45666 l 0.2328,-8.33655 8.44536,-2.92116 c 4.64583,-1.60756 9.97124,-3.71282 11.83408,-4.67912 1.86283,-0.9663 3.571,-1.75797 3.79429,-1.75797 z m -199.37212,3.54952 c 0.70904,-0.0463 1.86307,0.47344 3.53991,1.58288 3.96612,2.62411 3.56849,4.15186 3.05031,9.16637 -0.18164,5.47829 -0.49514,7.03813 -1.43997,7.18296 -1.59061,0.24382 -7.20558,-2.76498 -7.73498,-4.14429 -0.59794,-1.55785 1.04482,-12.57958 2.02074,-13.55529 0.14013,-0.14009 0.32765,-0.21722 0.56399,-0.23263 z m 154.63256,4.14318 c 3.30291,0.14365 3.66307,1.07683 4.84049,3.89417 1.98845,4.75805 5.88954,19.17846 5.10483,19.963 -1.70073,1.70038 -22.34865,6.12456 -38.31975,8.21185 -13.05244,1.70584 -22.58793,2.20475 -23.24582,0.49068 -0.67979,-1.77111 -1.22011,-7.70059 -0.50175,-8.8293 0.32608,-0.51235 1.91359,-1.19602 3.68242,-1.51813 7.38734,-1.34522 15.96551,-7.60639 19.71858,-14.96143 2.02717,-3.97274 0.75121,-4.0113 6.17378,-4.62551 2.43353,-0.27565 8.19267,-0.94048 13.56906,-1.6317 4.18307,-0.5378 6.9964,-1.07982 8.97816,-0.99363 z m -13.20204,3.78326 c -1.8744,-0.12687 -3.79358,0.33976 -5.83185,1.39581 -7.32546,3.79541 -8.47546,11.40203 -2.55592,16.92253 2.78331,2.59569 3.76462,3.01949 6.9958,3.01949 11.02041,0 15.70769,-12.9359 6.94781,-19.17215 -1.85337,-1.31945 -3.68146,-2.03882 -5.55584,-2.16568 z m -109.80419,1.60687 c 0.7987,-0.017 1.86672,0.16406 3.29031,0.41011 5.70669,0.98629 3.41986,4.337 3.6215,9.8427 0,10.30273 0.0178,10.27507 -5.63265,8.55959 -4.95246,-1.50358 -3.22572,-4.56344 -3.4463,-9.61486 -0.19318,-7.30272 -0.22893,-9.14689 2.16714,-9.19754 z m 22.66826,6.84177 c 1.09162,-0.60535 3.27765,0.26296 7.34275,1.1753 7.50953,1.68542 6.28372,1.39399 7.84672,2.51031 0.90414,0.64575 0.94208,1.26097 0.66755,1.97628 -0.30084,0.78377 -0.50361,0.90609 -1.85206,0.8803 -2.08294,-0.0399 -12.4023,-2.63892 -13.91656,-3.57458 -1.91569,-1.48159 -1.07198,-2.42217 -0.0884,-2.96761 z m 147.91666,0.9024 c 0.15542,-0.0111 0.25863,0.005 0.30479,0.0504 0.36931,0.3596 0.55126,1.51026 0.40318,2.55661 -0.21523,1.52095 -1.94602,2.73994 -8.62536,6.07974 -17.91636,8.95855 -40.49968,15.51953 -66.05818,19.19374 -14.75968,2.12179 -44.16327,2.27427 -59.08398,0.30698 -24.34229,-3.20952 -43.65662,-8.80506 -60.29594,-17.47175 -9.7038,-5.05428 -12.83276,-7.40272 -11.56289,-8.67232 0.29198,-0.29192 3.89883,0.91389 8.01578,2.67892 21.29223,9.12838 50.9461,16.31585 73.0492,17.70439 11.75973,0.73906 28.13027,0.74079 41.09886,0.007 23.42428,-1.32536 52.89729,-8.90316 74.03077,-19.03305 4.02213,-1.9279 7.63582,-3.32286 8.72377,-3.40081 z m 0.096,8.93134 c 0.31435,0 0.77954,0.53911 1.03197,1.19676 0.82065,2.13812 -2.92658,5.10898 -12.26847,9.72757 -17.01485,8.41204 -39.9601,14.82649 -63.23826,17.6804 -9.26,1.13528 -41.20531,2.15925 -47.06031,1.50854 -1.5486,-0.17211 -6.97857,-0.72126 -12.06687,-1.22075 -21.29312,-2.09022 -43.44066,-7.6225 -56.71524,-14.16686 -10.91291,-5.38005 -17.51982,-11.60639 -14.99479,-14.13089 0.69688,-0.69674 3.05569,0.18787 9.56853,3.58549 14.91513,7.78094 32.10561,13.29208 52.48657,16.8266 8.31547,1.44208 14.23474,1.80759 34.19186,2.10813 21.58796,0.32512 25.40663,0.18086 36.20061,-1.35745 23.22898,-3.31051 44.30964,-9.2006 63.09667,-17.63004 5.05845,-2.26963 9.45337,-4.1275 9.76773,-4.1275 z m -134.65311,0.58279 c 0.48407,-0.0422 1.05033,0.0589 1.69915,0.30458 1.63254,0.61818 1.82417,1.16036 1.60796,4.52563 -0.25966,4.04194 -1.37385,4.9697 -4.06549,3.38163 -0.95091,-0.56103 -1.40876,-1.82974 -1.40876,-3.90927 0,-2.74951 0.71496,-4.17586 2.16714,-4.30257 z m 22.16022,3.70337 8.27543,-0.063 0.1388,2.68566 0.64389,3.95075 -9.25175,0.0983 c -5.08829,0.0544 -10.13199,-0.56929 -11.90184,-0.84486 l -2.6477,-0.69065 0.12627,-3.00943 c 0.14553,-3.46837 -0.48158,-2.93705 1.11967,-2.89671 1.11375,0.0865 9.01577,0.52228 13.49723,0.76994 z m 96.81411,15.26013 c 2.01564,-0.23581 30.09997,21.02035 30.09997,23.38359 0,0.56453 -0.90497,1.87741 -2.01114,2.91635 -1.10615,1.03896 -2.01273,2.27742 -2.01355,2.75328 -0.001,0.47583 1.66635,3.30962 3.70551,6.29558 l 3.7079,5.4274 6.21582,0 6.21343,0 3.43431,4.62635 c 5.1804,6.97711 6.6402,10.39978 7.42539,17.41659 0.52106,4.65635 1.71383,8.76215 4.38949,15.0998 3.58217,8.48483 4.69916,9.96678 5.64704,7.49715 0.94756,-2.46878 2.60466,-1.06705 4.15189,3.51353 0.90137,2.66854 1.31573,5.17119 0.95277,5.75836 -0.35312,0.57123 -2.62137,1.2025 -5.03987,1.40302 l -4.39667,0.36455 -4.88626,-14.68491 c -2.68697,-8.07767 -5.23973,-15.04271 -5.67345,-15.47634 -1.02936,-1.02913 -11.04837,0.821 -12.54446,2.31678 -1.07503,1.07479 -1.80958,6.91306 -2.35194,18.67809 -0.376,8.15682 -0.87636,8.49806 -8.93735,6.10852 -11.68332,-3.46333 -30.13397,-13.87405 -30.81035,-17.38541 -0.1379,-0.71595 1.94072,-5.67444 4.61987,-11.01787 2.67917,-5.34343 4.87187,-10.01869 4.87187,-10.38951 0,-1.36781 -9.67526,-13.8287 -10.73731,-13.8287 -0.60474,0 -5.6411,2.17361 -11.19089,4.82781 -5.54979,2.65419 -10.66792,4.82539 -11.37329,4.82542 -4.02081,0 -17.38032,-27.62944 -17.38032,-35.9436 -1e-5,-1.46528 0.091,-2.66798 0.20159,-2.67412 0.52458,-0.0275 14.90003,-3.21624 16.72035,-3.5663 1.75125,-0.33677 7.95525,-2.15992 10.6197,-0.57079 2.41605,1.44097 3.11744,2.61944 4.56468,2.23762 3.80441,-1.0037 5.20652,-1.43755 8.56776,-2.54221 2.6504,-0.87107 0.53615,-7.054 3.23751,-7.37003 z m -170.9329,3.16097 c 0.21039,-0.0185 0.41833,-0.0171 0.63358,0 0.57399,0.0456 1.192,0.20607 2.00875,0.42451 5.08638,1.36036 7.73018,2.49294 7.73018,3.31207 0,0.41023 -2.60208,1.53596 -5.78144,2.50145 -3.17935,0.9655 -9.42332,3.19278 -13.87642,4.95013 -4.45308,1.75735 -8.54987,3.3953 -9.10295,3.63824 -1.93786,0.85125 -0.98087,-1.19353 1.63196,-3.48714 1.45076,-1.27351 5.66635,-4.44854 9.36694,-7.05585 4.36553,-3.07583 5.91648,-4.1537 7.3894,-4.28341 z m 21.8898,6.62896 c 1.07937,-0.0427 4.61679,0.4687 8.53656,1.25432 16.26239,3.25942 27.73056,4.24393 50.72741,4.35054 l 22.1106,0.10314 0.97916,6.85439 c 1.57339,11.01059 7.17599,24.65754 15.27799,37.2147 1.95837,3.03523 3.45027,6.05231 3.3167,6.7057 -0.13358,0.65337 -10.55671,7.12755 -23.16416,14.38751 -12.60744,7.25994 -23.33678,13.20034 -23.84094,13.20034 -0.50417,0 -3.11658,-3.02722 -5.80544,-6.72729 -11.46227,-15.77299 -27.19116,-26.35522 -45.03477,-30.30034 -15.51732,-3.43082 -30.67024,-1.1254 -46.12193,7.01988 -3.90703,2.05956 -7.2796,3.56819 -7.4974,3.35044 -0.21778,-0.21773 -1.12695,-3.94042 -2.01834,-8.2718 -1.65376,-8.03568 -2.28159,-26.32493 -0.97438,-28.38169 0.77088,-1.2129 15.78177,-8.30481 25.49931,-12.04675 3.98215,-1.53343 11.68756,-4.0123 17.12352,-5.50894 5.43597,-1.49663 10.19828,-2.91472 10.58131,-3.15139 0.0479,-0.0296 0.15061,-0.0466 0.3048,-0.0528 z m 153.37498,3.54711 -7.48059,3.31927 c -4.11479,1.82606 -8.07013,3.33085 -8.78855,3.34325 -0.71844,0.0124 -3.55124,-1.16213 -6.29503,-2.61176 -3.93848,-2.08081 -5.19492,-2.4284 -5.97344,-1.65005 -0.77854,0.77837 -0.4054,1.2291 1.77115,2.1465 3.45564,1.45652 7.70746,5.83972 8.40217,8.66032 0.86107,3.49599 -1.50879,7.25662 -6.46542,10.26001 -4.42409,2.68071 -5.5051,4.08433 -3.14391,4.08433 0.69655,0 9.56586,-4.21455 19.70826,-9.36543 10.14239,-5.15085 18.85631,-9.86538 19.36506,-10.47824 1.40876,-1.6971 -2.00928,-4.84409 -6.95741,-6.40352 z m -56.29765,0.18707 c 2.18881,0.0427 2.47016,1.52359 4.42068,8.35094 5.25126,18.38076 15.91153,35.3035 31.94072,50.70044 4.58889,4.40791 11.14157,9.93786 14.5604,12.28898 7.80847,5.36984 20.51942,11.45916 29.93678,14.33955 6.84151,2.09256 8.12636,2.21679 23.32976,2.25682 8.84921,0.0233 17.26452,-0.25954 18.70029,-0.62597 2.309,-0.5893 2.69511,-0.44422 3.33831,1.24713 0.39994,1.05172 0.8526,3.34151 1.00797,5.08923 0.27189,3.0588 0.14634,3.24467 -3.33831,4.96452 -1.99107,0.98272 -5.97257,2.55688 -8.84856,3.49674 -4.05295,1.32446 -7.85193,1.78237 -16.89314,2.04097 -10.39953,0.29741 -12.44939,0.12658 -18.90427,-1.59008 -17.97374,-4.78012 -34.23855,-14.49001 -50.45622,-30.12047 -21.60248,-20.82045 -38.43975,-49.94823 -38.43975,-66.50297 0,-4.78575 0.0296,-4.81142 6.68862,-5.64323 1.28607,-0.16066 2.22711,-0.30683 2.95672,-0.2926 z m 27.02806,10.36793 c -1.41003,-0.14754 -2.86843,0.34871 -4.11349,1.51814 -2.45527,2.3061 -2.44056,4.30637 0.048,6.79443 2.3041,2.30363 2.9409,2.38586 6.05264,0.77705 3.14091,-1.62389 3.80777,-4.08013 1.83114,-6.73927 -1.04758,-1.40931 -2.40827,-2.20281 -3.81829,-2.35035 z m 58.2512,3.43919 c 0.76907,0.0724 1.14279,0.87613 0.97197,2.29999 -0.28111,2.3431 2.17596,4.88743 4.84787,5.02207 1.04709,0.0528 1.82634,0.6062 1.82634,1.29749 0,0.72189 -0.89915,1.31153 -2.23913,1.46537 -3.95144,0.45369 -9.85623,-7.7235 -6.91901,-9.58128 0.43508,-0.27518 0.82425,-0.43644 1.15917,-0.48925 0.12561,-0.0198 0.24293,-0.0248 0.35279,-0.0144 z m -12.88285,0.76746 c -0.86221,-0.53277 -20.40167,8.20259 -21.6138,9.66282 -0.56692,0.68293 0.38409,2.28965 3.27111,5.52812 2.23778,2.51021 4.25758,4.564 4.49028,4.564 0.72781,0 17.87847,-10.49373 18.32109,-11.20974 0.4539,-0.73426 -3.23045,-7.7801 -4.46868,-8.5452 z m -227.73934,6.24522 c 0.35525,0 0.88559,4.73033 1.17837,10.51423 0.2928,5.78389 1.26633,13.83747 2.16474,17.89624 l 1.63435,7.37963 -3.5039,3.21853 c -14.18935,13.03496 -23.29112,28.47572 -28.44403,48.25656 -2.17806,8.36116 -2.30348,9.75366 -2.28713,25.33583 0.0162,15.432 0.16195,17.04719 2.27753,25.22551 1.24321,4.80603 3.49854,11.67252 5.01107,15.2581 3.10343,7.35695 3.24889,8.49608 1.52155,11.83571 -0.67505,1.30517 -1.60269,2.37433 -2.06154,2.37433 -1.97397,0 -9.06788,-19.53281 -12.12447,-33.37979 -2.29928,-10.41623 -2.6924,-15.59505 -2.64472,-34.98666 0.0359,-14.60732 0.32679,-18.72306 1.86715,-26.50622 3.70227,-18.70675 11.35892,-38.25614 20.96102,-53.52086 5.24179,-8.33303 13.32143,-18.90114 14.45001,-18.90114 z m 14.17881,4.23542 c -2.21721,0.14157 -4.5045,1.5641 -5.61824,3.7174 -1.68259,3.25308 -1.46752,4.57841 1.18076,7.22613 3.0836,3.08297 5.91867,3.05408 9.06695,-0.0935 2.03091,-2.03045 2.36248,-2.86991 1.94634,-4.95013 -0.61493,-3.0741 -1.82687,-4.6042 -4.42787,-5.59288 -0.67712,-0.25739 -1.40887,-0.35417 -2.14794,-0.30699 z m 84.92167,2.83961 c -2.76991,0 -3.87032,0.49227 -6.11264,2.73409 -3.8055,3.80471 -3.8055,7.6161 0,11.42079 3.83534,3.83451 8.0396,3.84415 12.08847,0.0264 3.96613,-3.73974 4.01373,-7.57346 0.1392,-11.44717 -2.24231,-2.24182 -3.34511,-2.73409 -6.11503,-2.73409 z m 137.56422,1.31188 c -1.78434,9.7e-4 -6.05575,1.60261 -11.66368,4.37214 l -8.84855,4.36973 -2.19115,7.15178 c -1.20422,3.93325 -1.99635,7.4603 -1.76155,7.84011 0.601,0.97226 0.32443,1.08632 7.70859,-3.18257 18.68282,-10.8008 30.43356,-17.98988 30.43356,-18.62054 0,-0.71831 -8.61138,-1.93311 -13.67722,-1.93065 z m -34.99104,2.66694 c 1.22806,0.0298 1.79537,0.90283 3.16792,2.40072 1.50848,1.64626 3.32369,4.08703 4.03428,5.42499 1.26756,2.38661 1.21601,2.59762 -2.80312,11.08022 -2.41855,5.10447 -4.57303,8.64594 -5.25826,8.64594 -0.63838,0 -2.49791,-1.17434 -4.13269,-2.60937 -3.97337,-3.48794 -13.97721,-14.88448 -13.97721,-15.92243 0,-0.45405 3.52899,-2.47376 7.84298,-4.48965 6.87649,-3.21337 9.54714,-4.56877 11.1261,-4.53042 z m 51.1594,2.90435 c -0.40026,-0.24732 -5.01621,2.01172 -10.25733,5.01968 -31.91974,18.31934 -30.66726,17.41878 -25.41769,18.27519 1.65923,0.27068 3.55778,0.62544 4.22148,0.78904 0.66369,0.16364 3.7426,0.12129 6.83981,-0.0935 7.44166,-0.51612 12.80506,-3.16013 19.80905,-9.76595 5.49279,-5.18055 5.53182,-5.24673 5.53186,-9.49493 -10e-6,-2.35334 -0.32694,-4.48218 -0.72718,-4.7295 z m -55.78647,2.18968 c -0.37186,-0.004 -0.73096,0.0347 -1.07038,0.11991 -5.19746,1.30419 -7.07482,8.49184 -3.04551,11.66062 2.76277,2.17274 6.13956,2.11585 8.65176,-0.1439 2.2261,-2.0024 2.71802,-3.9203 1.85035,-7.22373 -0.60781,-2.31406 -3.7832,-4.3873 -6.38622,-4.4129 z m -149.89749,10.83799 c 11.27827,-0.0381 13.56156,0.18225 18.43149,1.77956 23.01065,7.5473 40.34805,25.69368 49.36425,51.66456 7.26573,20.92887 6.9118,45.30326 -0.97197,67.07375 -3.36973,9.30532 -6.13208,14.35181 -12.50366,22.84878 -9.69855,12.93375 -22.64912,22.24668 -36.491,26.2376 -5.12996,1.4793 -15.73135,2.59672 -21.44821,2.26162 -10.29819,-0.60354 -22.65616,-4.97236 -31.90713,-11.2793 -35.9204,-24.48903 -47.38098,-80.90732 -24.74572,-121.82016 10.01894,-18.10904 22.70611,-29.43189 40.4677,-36.11387 6.73445,-2.53354 7.30074,-2.6103 19.80425,-2.65254 z m 114.80565,8.4013 c 0.58108,0 2.93214,2.44382 5.22466,5.4298 11.19077,14.57583 30.46477,30.58417 46.49632,38.61772 7.47753,3.74705 17.75618,7.11195 26.10889,8.5452 4.18343,0.71785 7.92038,1.61923 8.30376,2.0026 0.86722,0.86704 2.67246,13.47121 3.7583,26.2376 0.94794,11.14526 1.22411,10.60302 -6.71262,13.24591 -2.7007,0.89934 -8.84419,3.62511 -13.65323,6.05815 -4.80904,2.43291 -9.2148,4.4225 -9.78932,4.4225 -0.6171,0 -2.27005,-3.70099 -4.03909,-9.04646 -6.46428,-19.53282 -9.80031,-23.13261 -17.93231,-19.34243 -3.90788,1.82139 -32.39048,29.93727 -36.3902,35.922 -4.47727,6.69926 -4.41909,10.43057 0.2352,15.47875 1.86192,2.01947 6.4065,5.5179 10.10131,7.77534 3.69482,2.25731 6.90917,4.41247 7.14221,4.78944 0.23305,0.37698 -0.8134,2.20877 -2.32553,4.06995 -5.18402,6.3805 -13.03847,18.67087 -17.55793,27.47273 -2.4869,4.84336 -4.84883,8.89283 -5.24865,9.00089 -1.09081,0.29348 -11.18625,-2.49232 -18.0235,-4.97411 -11.72382,-4.2553 -26.47818,-13.47108 -36.3494,-22.70247 -4.18221,-3.91111 -4.59996,-5.01652 -2.54153,-6.72249 2.77825,-2.30263 9.81491,-11.80857 13.33644,-18.01617 4.80351,-8.46762 7.35604,-14.63962 10.03172,-24.26138 2.10266,-7.5614 2.19353,-8.67319 2.19353,-26.78922 0,-18.15999 -0.0864,-19.21302 -2.21513,-26.87315 -1.21857,-4.38496 -3.71017,-11.18873 -5.53665,-15.11899 -2.83632,-6.10334 -3.15516,-7.29677 -2.18154,-8.18547 0.62696,-0.57228 7.83644,-4.85244 16.02195,-9.50933 8.18553,-4.65687 18.39365,-10.50515 22.68418,-12.99648 4.29054,-2.49132 8.27707,-4.53034 8.85816,-4.53043 z m 92.87025,0.26383 c 0.98428,-0.007 1.85186,0.19815 2.28474,0.65953 1.49456,1.593 8.68481,23.85798 8.15257,25.24469 -0.3516,0.91608 -1.93902,1.1589 -7.1134,1.08645 -6.98797,-0.0979 -9.43401,-0.44594 -10.55491,-1.50375 -0.83831,-0.79114 1.72463,-22.57682 2.81033,-23.88725 0.8155,-0.98432 2.78023,-1.58735 4.42067,-1.59967 z m -0.82318,6.16847 c -0.43539,0.0332 -0.92342,0.2555 -1.62476,0.63076 -3.65421,1.95526 -4.4003,8.13364 -1.53115,12.6823 0.67808,1.075 1.94244,1.80833 3.11512,1.80833 4.68507,0 6.4662,-9.58349 2.51512,-13.5337 -1.1708,-1.17056 -1.74867,-1.64307 -2.47433,-1.58769 z m -198.27295,8.9745 c -0.24208,0.0114 -0.47662,0.0392 -0.70558,0.0815 -0.99535,0.18431 -3.00391,3.31863 -6.00704,9.37262 -2.4815,5.00247 -4.83495,9.41331 -5.22946,9.80432 -0.83024,0.82292 -17.97169,-1.24523 -19.02187,-2.29519 -0.37847,-0.3784 -1.23423,-4.08941 -1.90075,-8.24541 -0.66652,-4.156 -1.51436,-7.86124 -1.88395,-8.23582 -1.15485,-1.1705 -9.02269,4.5824 -15.33558,11.21453 -4.29985,4.51729 -7.12612,8.44896 -9.77253,13.59366 -4.63215,9.00503 -7.49012,17.87081 -6.24463,19.37122 0.48124,0.57973 4.42746,2.15771 8.76936,3.50634 5.2173,1.62055 8.07917,2.93098 8.43817,3.8637 0.29876,0.77621 0.29049,5.32725 -0.0192,10.1161 -0.64702,10.00425 -0.0432,9.3399 -10.00293,10.99149 -8.42995,1.39788 -9.14336,1.86917 -8.53896,5.64804 1.41383,8.83967 7.11535,21.69198 13.38923,30.18283 5.66535,7.66725 15.79824,15.48989 17.60831,13.59367 0.39692,-0.41582 1.65971,-5.42209 2.80554,-11.12581 1.14582,-5.70371 2.50169,-10.8752 3.01431,-11.49273 0.73169,-0.88144 2.41732,-1.00932 7.84539,-0.59479 3.80283,0.29042 7.33284,0.93777 7.84298,1.439 0.51015,0.50123 2.24763,5.07204 3.86149,10.15928 4.75139,14.97715 5.25301,16.08791 7.2598,16.08791 0.97537,0 4.09256,-1.14704 6.92861,-2.54701 7.71915,-3.81047 19.46181,-15.86392 23.93455,-24.56837 4.79203,-9.3258 6.07008,-13.16247 4.77106,-14.32516 -0.5633,-0.50418 -6.81625,-2.47144 -13.89561,-4.37214 -7.07937,-1.9007 -13.30683,-3.86121 -13.83802,-4.35773 -1.20559,-1.12687 -0.44564,-18.42118 0.88797,-20.21542 0.67988,-0.91472 4.08428,-1.36037 14.7236,-1.92826 7.61225,-0.4063 14.22014,-0.97323 14.68279,-1.25912 2.51614,-1.55473 -0.81066,-15.36781 -6.49422,-26.96669 -3.66107,-7.47144 -5.03107,-9.33207 -11.87728,-16.14307 -7.23763,-7.20042 -12.36452,-10.52503 -15.99555,-10.35354 z m 87.216,8.5596 c -2.03124,0 -22.28543,9.15254 -22.71538,10.2648 -0.21593,0.55861 0.0624,1.56253 0.61679,2.23043 0.63507,0.76509 1.63354,1.0208 2.70232,0.69072 3.52614,-1.089 19.44395,-8.49965 20.51224,-9.5501 1.34525,-1.32277 0.63556,-3.63585 -1.11597,-3.63585 z m 4.45908,11.2601 c -2.5996,0 -22.62743,8.08742 -23.10417,9.32946 -0.23811,0.62046 -0.22349,1.67001 0.0312,2.33356 0.25467,0.66355 0.83277,1.20635 1.28397,1.20635 1.3544,0 21.31034,-7.94228 22.92897,-9.1256 1.85885,-1.35894 1.13281,-3.74376 -1.13997,-3.74377 z m 25.70089,10.85479 c -4.47224,0.25697 -8.84135,4.47424 -8.84135,9.39661 0,2.60767 0.53175,3.7657 2.73592,5.96941 2.29386,2.29338 3.31374,2.73408 6.32623,2.73408 4.15897,0 7.09024,-1.90013 8.61816,-5.58808 2.00775,-4.84612 -0.53889,-10.03303 -5.93024,-12.07552 -0.65715,-0.24897 -1.33286,-0.3906 -2.01354,-0.4341 -0.2978,-0.019 -0.59703,-0.0195 -0.89518,-0.002 z m -22.87377,0.87059 c -1.52432,0.0905 -4.39035,0.98294 -10.8189,3.12501 -6.23372,2.0771 -11.55011,4.12849 -11.81487,4.5568 -0.26483,0.42832 -0.28016,1.30506 -0.0336,1.94744 0.69905,1.82126 3.35752,1.42055 13.91242,-2.09613 10.61879,-3.53799 12.60672,-4.84617 10.52852,-6.92394 -0.42862,-0.42853 -0.85896,-0.66346 -1.77357,-0.60918 z m 133.52994,0.0432 c 0.13896,-4.4e-4 0.23911,0.0158 0.29518,0.0504 1.26555,0.7821 1.08818,36.73996 -0.18958,38.42826 -0.74247,0.981 -3.32041,1.55878 -9.85413,2.20885 -4.86706,0.48416 -10.29704,1.2142 -12.06688,1.62126 -4.64874,1.06917 -5.18273,0.97689 -6.01183,-1.03128 -0.64351,-1.55863 -3.42699,-26.31156 -3.58791,-31.90962 -0.0537,-1.86892 0.32279,-2.01196 8.99256,-3.40802 4.97597,-0.80121 11.93942,-2.5701 15.47477,-3.93323 3.09343,-1.19274 5.97515,-2.02347 6.94782,-2.02658 z m -131.4468,12.46406 c -2.1168,0.0897 -5.68545,0.87407 -11.68528,2.4367 -10.35065,2.69578 -12.13211,3.60468 -11.30368,5.76314 0.7394,1.92642 3.02746,1.7041 14.5148,-1.41261 10.72126,-2.90885 12.08669,-3.58878 11.30368,-5.62884 -0.26316,-0.68571 -0.82787,-1.08044 -2.00874,-1.15359 -0.24601,-0.0152 -0.51838,-0.0176 -0.82078,-0.005 z m 77.77707,3.1322 c -8.68048,0.0446 -12.00487,10.84336 -4.60068,14.94632 5.86389,3.24942 12.78445,-0.49746 12.78445,-6.92154 0,-4.77852 -3.33607,-8.04971 -8.18377,-8.02478 z m -25.7753,15.37802 c 1.88677,-0.0738 3.15963,1.25225 4.52868,3.58788 2.01694,3.4408 9.47384,24.44273 9.05976,25.5157 -0.11366,0.29459 -3.28291,2.80051 -7.04381,5.5689 -3.76092,2.76839 -11.40779,9.50364 -16.99154,14.96551 -5.58374,5.46187 -10.32437,9.92902 -10.53571,9.92902 -1.36753,0 -15.26535,-9.48162 -17.8123,-12.15227 -2.60422,-2.73069 -3.02858,-3.64034 -2.62793,-5.64324 0.82147,-4.10635 5.21637,-9.5081 18.96908,-23.31885 13.01251,-13.06734 18.85176,-18.31168 22.45377,-18.45265 z m 78.39385,14.29397 -0.53278,3.93805 c -0.63865,4.72018 -2.03971,5.94542 -6.79182,5.94542 -8.47694,0 -32.73846,10.67756 -48.59625,21.3858 -25.85249,17.45724 -45.56718,39.67834 -56.45366,63.63457 -4.49438,9.89006 -5.85806,13.98536 -7.85259,23.56107 -0.87534,4.2025 -2.07619,8.13249 -2.66872,8.73468 -1.25888,1.27853 -8.08296,2.23107 -8.68777,1.21115 -0.74615,-1.25802 3.29735,-19.08541 6.25663,-27.58545 3.66217,-10.51877 11.18403,-25.5714 17.49073,-34.99865 6.40814,-9.57903 17.82373,-23.26764 24.55852,-29.44896 22.88166,-21.00143 51.54604,-34.61559 75.71072,-35.95797 z m -7.015,14.75685 c 0.45408,-0.004 0.94497,0.0403 1.48316,0.11751 1.28261,0.18408 1.6232,0.76218 1.49756,2.53263 -0.23676,3.33632 -2.35277,6.14929 -4.62467,6.14929 -4.25325,0 -6.51609,6.49009 -4.35109,12.47605 0.62601,1.7309 0.66861,3.27991 0.1344,4.88298 -0.43034,1.29142 -1.29533,2.44469 -1.92235,2.5638 -1.12106,0.21329 -5.56298,-3.35464 -5.56544,-4.47047 -6.9e-4,-0.31386 2.05349,-5.58258 4.56706,-11.70619 4.16461,-10.14589 5.60279,-12.52333 8.78137,-12.5456 z m -9.98853,2.79164 c 0.3705,-0.0264 0.62496,0.0177 0.74879,0.1415 0.38263,0.3825 -1.09417,5.05104 -3.31912,10.49265 -2.20416,5.3909 -4.00788,10.43423 -4.00789,11.20734 0,0.77298 1.67555,3.10521 3.7223,5.18276 l 3.7223,3.77735 -3.91669,6.30279 c -5.13008,8.25985 -15.23331,21.67804 -16.76594,22.26598 -0.79073,0.3033 -2.3927,-0.95762 -4.64388,-3.65504 -6.53191,-7.82676 -6.98034,-8.18998 -8.51016,-6.90236 -0.74886,0.6303 -7.27623,6.36688 -14.50521,12.74945 -7.229,6.3825 -13.51339,11.73929 -13.96521,11.90285 -0.45183,0.16357 -2.93508,-1.19457 -5.51985,-3.01708 -2.58478,-1.82238 -5.06502,-3.31207 -5.51025,-3.31207 -0.94327,0 -9.29688,10.0417 -11.93488,14.34674 -2.98791,4.87602 -5.17061,11.44747 -5.90383,17.77393 -0.38126,3.28977 -1.18003,6.46953 -1.77596,7.06545 -0.59595,0.5958 -2.41769,1.29944 -4.04627,1.56369 -3.67288,0.5958 -3.70872,0.20877 -0.99838,-10.47344 3.38538,-13.34266 12.18693,-31.50599 19.08187,-39.38039 l 2.68793,-3.07224 8.22218,4.48006 c 4.5225,2.46324 8.86789,4.47765 9.65493,4.47765 1.7883,-0.002 21.14102,-18.18248 21.14102,-19.86046 0,-0.67635 -1.3239,-5.69776 -2.94232,-11.15937 -2.49608,-8.42356 -2.78079,-10.12624 -1.86955,-11.22414 4.06945,-4.90224 35.59677,-21.27798 41.15407,-21.6736 z M 379.74463,551.6071 c -0.31385,-0.0156 -0.62294,-0.0107 -0.92878,0.0144 -2.0389,0.16729 -3.92581,1.24806 -6.01903,3.34085 -2.06546,2.06505 -2.68793,3.36591 -2.68793,5.62166 0,3.78883 1.85769,7.32781 4.63668,8.8354 3.9218,2.12746 7.8863,1.60178 11.26529,-1.49415 2.6178,-2.39851 3.00471,-3.2192 3.00471,-6.37472 0,-4.44852 -2.21871,-7.71635 -6.28783,-9.26472 -1.05829,-0.40269 -2.04158,-0.63183 -2.98311,-0.67872 z m -153.3366,3.17538 c 0.46491,0.0141 2.36718,2.27617 4.22629,5.02687 6.9848,10.33471 18.31707,20.44773 28.89041,25.78192 23.43141,11.82122 48.07038,10.0223 70.56286,-5.15159 l 7.10141,-4.79184 2.23193,1.82033 c 1.22731,1.00065 4.48666,3.72746 7.243,6.06054 6.6034,5.58946 15.20326,11.34955 22.2378,14.89117 6.15749,3.10005 19.82744,8.05496 24.64972,8.93612 1.64371,0.30024 3.20791,0.9021 3.47751,1.33826 0.2696,0.43604 -0.61472,4.13332 -1.96555,8.21425 -2.60397,7.86679 -5.22648,18.59179 -6.08863,24.90413 -0.28628,2.09609 -1.06618,4.35814 -1.73516,5.02688 -1.02221,1.02201 -4.32137,1.20404 -20.66823,1.14878 -21.12099,-0.0713 -29.97008,-1.19757 -46.28513,-5.89026 -20.87743,-6.00502 -42.40538,-17.58699 -59.32157,-31.91924 -14.62775,-12.39347 -28.95162,-29.71849 -36.7574,-44.45523 l -2.07354,-3.91165 1.71596,-3.52793 c 0.94288,-1.94039 2.09341,-3.51505 2.55832,-3.50154 z m 236.71751,5.21874 c 0.0923,-1.3e-4 0.16259,0.0228 0.20879,0.072 0.36981,0.39281 1.66231,4.23938 2.87272,8.5476 l 2.20074,7.83291 -7.83098,8.45407 c -5.47184,5.90774 -8.35016,8.43241 -9.55893,8.38452 -2.71354,-0.10855 -15.00439,-6.2164 -15.00439,-7.45637 0,-2.87173 24.25229,-25.83028 27.11205,-25.83468 z m -10.78051,11.3728 c -1.62961,0.0723 -3.28029,0.72563 -4.63907,2.08413 -2.76786,2.76728 -2.6236,6.34651 0.37679,9.34624 1.41761,1.41734 3.19841,2.35276 4.48547,2.35276 2.99143,0 6.83742,-4.01263 6.83742,-7.13261 0,-4.15541 -3.47544,-6.80954 -7.06061,-6.65052 z m 23.84815,16.64192 c 1.72141,-0.14712 3.87782,1.8146 6.98381,6.29558 l 2.18154,3.149 -4.35828,4.45128 c -11.62964,11.87576 -24.77051,21.13892 -42.16924,29.72714 -6.6369,3.27601 -13.24481,6.18393 -14.6828,6.46107 -2.50703,0.48332 -2.61352,0.40004 -2.61352,-2.05056 0,-4.50911 2.38336,-13.21579 4.75427,-17.36622 2.82917,-4.95264 9.46408,-12.45211 11.01808,-12.45206 0.62951,0 3.13496,1.31963 5.56546,2.93314 3.96579,2.63246 4.56259,2.81331 5.81984,1.75556 0.77052,-0.64823 6.75491,-5.85835 13.30043,-11.57907 6.54553,-5.7206 12.61508,-10.7306 13.48763,-11.133 0.22969,-0.10597 0.46687,-0.17084 0.71278,-0.19186 z"
       id="path4908"
       inkscape:connector-curvature="0"
       sodipodi:nodetypes="ccssccscsssssscssssssccscccsccccsssssscccsscccccccccscsccsssccscscsssssccccsssscsccssscccsssscscsssssscssccsssccccccccscsscssssssscccssssssssscccsssssssssccsssscccsscccsscccsscssssssssssscccsscscssccssssssssssssssssscscsccssscccsccssssssscssccscsssssssssssscssssccccccccsccccccccccsssscsccsssscsssscscsssssccsssscssccccccscssssssssssccccssssssssscccsssssssccssssssssscsssscscssscccsssssssccccsssssssssssccssssccccssscccccccsscccsssssscccscssccccsssscscssscsssssccsscsscssssscsssccscsssssssscccsssscccsssccsscsscsscssssssssssssssssscsscssccsssssssccsssccssscccccccssscccscsscsscccscsccccscsscccsssscscccssssccsssccccsscccsscccscccccsssccsssccsccccssccccsscssscccscccssccsscssscccccccscccscccccsscccccscsscccsccc" />
    <path
       inkscape:connector-curvature="0"
       style="fill:none;stroke:#000000;stroke-width:1;stroke-opacity:1"
       d="m 898.75122,521.87955 c -3.79482,-3.79596 -3.79482,-7.5989 0,-11.39487 2.23602,-2.23667 3.3347,-2.72833 6.09684,-2.72833 2.76215,0 3.86083,0.49166 6.09684,2.72833 3.86366,3.86481 3.81766,7.68934 -0.13734,11.42048 -4.0375,3.80901 -8.23177,3.8001 -12.05634,-0.0256 z"
       id="path4752-8" />
    <path
       inkscape:connector-curvature="0"
       style="fill:none;stroke:#000000;stroke-width:1;stroke-opacity:1"
       d="m 912.46911,764.06158 c -26.32948,-3.70196 -44.65801,-9.24124 -63.5823,-19.21583 -15.22081,-8.02263 -26.7391,-16.56692 -39.83641,-29.5509 -22.16592,-21.97402 -37.19782,-49.7299 -44.32238,-81.83971 -2.05683,-9.27001 -2.16264,-10.81758 -2.17487,-31.81155 -0.0122,-21.09067 0.0835,-22.49884 2.16203,-31.81154 8.89996,-39.87442 30.36813,-73.66411 61.83185,-97.31982 4.23834,-3.18656 7.70215,-6.03922 7.69737,-6.33925 -0.005,-0.30005 -2.2179,-1.80941 -4.91803,-3.35413 -2.70015,-1.54472 -6.71915,-4.50074 -8.93111,-6.56893 l -4.02176,-3.76033 0.46658,-12.68998 c 0.69492,-18.90106 4.31596,-32.86048 12.86684,-49.60293 13.01501,-25.48316 38.54068,-46.56261 64.31123,-54.27159 17.08361,-5.94069 32.69384,-6.18026 50.53956,-2.74542 33.93041,6.57127 61.04989,27.72164 77.22429,60.22683 6.8861,13.83896 10.5444,28.97963 11.1811,46.27654 l 0.4629,12.57343 -2.1898,2.02997 c -1.2043,1.1165 -4.863,3.40276 -8.1304,5.08059 -3.2674,1.67782 -5.9422,3.48927 -5.9441,4.02543 -10e-4,0.53616 0.8088,1.4043 1.8015,1.92921 4.6934,2.48162 17.4634,12.73669 25.3451,20.35371 21.0659,20.35836 36.7349,46.4433 43.7828,72.8875 4.6285,17.3666 4.8765,19.55736 4.8765,43.08071 0,21.1237 -0.095,22.50321 -2.2216,32.25465 -10.8319,49.66906 -42.254,90.05141 -87.8392,112.88713 -22.90694,11.4751 -45.7548,16.9582 -72.38787,17.37171 -8.60376,0.13353 -16.7262,0.0905 -18.04985,-0.0954 z"
       id="path4908-8" />
    <path
       inkscape:connector-curvature="0"
       style="fill:none;stroke:#000000;stroke-width:1;stroke-opacity:1"
       d="m 948.4638,757.71151 c 0.6671,-0.66723 1.44647,-2.92415 1.73194,-5.01534 0.85973,-6.29792 3.47406,-16.99801 6.07073,-24.84675 1.34704,-4.07157 2.2292,-7.75893 1.96036,-8.19402 -0.26885,-0.43517 -1.82989,-1.03637 -3.46899,-1.33601 -4.80874,-0.87909 -18.43865,-5.82374 -24.57886,-8.91672 -7.0148,-3.53353 -15.59157,-9.27895 -22.17644,-14.85553 -2.74861,-2.32776 -5.9988,-5.04897 -7.22266,-6.0473 l -2.22521,-1.81499 -7.08155,4.77982 c -22.42935,15.13912 -46.9987,16.93381 -70.36433,5.13973 -10.54366,-5.32196 -21.84496,-15.4126 -28.81016,-25.72367 -1.85389,-2.74439 -3.75003,-5.00131 -4.21363,-5.01535 -0.46361,-0.0136 -1.6122,1.55854 -2.55244,3.49437 l -1.70951,3.51973 2.06629,3.90298 c 7.78387,14.70283 22.06885,31.98732 36.65558,44.35226 16.86872,14.29944 38.33491,25.85655 59.15377,31.84776 16.26925,4.68193 25.09406,5.8056 46.15577,5.87678 16.30098,0.0554 19.59,-0.12807 20.60934,-1.14775 z"
       id="path4906-3" />
    <path
       inkscape:connector-curvature="0"
       style="fill:none;stroke:#000000;stroke-width:1;stroke-opacity:1"
       d="m 963.84724,754.80117 c 0.59086,-0.6008 1.78845,-4.52279 2.66134,-8.71563 1.98892,-9.5537 3.35043,-13.64013 7.8322,-23.50752 10.85593,-23.90112 30.51392,-46.0716 56.29382,-63.4888 15.8133,-10.68365 40.0067,-21.33514 48.4598,-21.33514 4.7388,0 6.1362,-1.22428 6.7731,-5.93368 l 0.5311,-3.92754 -7.5454,0.41937 c -24.0968,1.33928 -52.6799,14.92125 -75.4973,35.8745 -6.71593,6.16711 -18.09925,19.82449 -24.48941,29.3815 -6.289,9.40565 -13.79077,24.42335 -17.44266,34.91802 -2.95098,8.48052 -6.98278,26.26669 -6.23872,27.52189 0.60312,1.01751 7.40678,0.069 8.66213,-1.20697 z"
       id="path4904-0" />
    <path
       inkscape:connector-curvature="0"
       style="fill:none;stroke:#000000;stroke-width:1;stroke-opacity:1"
       d="m 977.61575,751.47821 c 0.59426,-0.59447 1.39155,-3.76625 1.77174,-7.04845 0.73116,-6.31196 2.90803,-12.8689 5.88756,-17.7337 2.6306,-4.29514 10.96057,-14.31363 11.90118,-14.31363 0.44398,0 2.91617,1.48767 5.49367,3.30587 2.5775,1.81828 5.055,3.17243 5.5056,3.00921 0.4505,-0.16314 6.7172,-5.50677 13.9259,-11.87457 7.2087,-6.36788 13.7177,-12.09244 14.4645,-12.72132 1.5255,-1.28465 1.9729,-0.92155 8.4865,6.88723 2.2449,2.6912 3.8417,3.94856 4.6302,3.64595 1.5283,-0.58667 11.6037,-13.97347 16.7194,-22.21437 l 3.9044,-6.28956 -3.7109,-3.76873 c -2.041,-2.07274 -3.7109,-4.39978 -3.7109,-5.1711 0,-0.77131 1.7983,-5.80295 3.9963,-11.18144 2.2187,-5.42917 3.6906,-10.08483 3.309,-10.4665 -1.9756,-1.9762 -37.4562,16.26428 -41.7847,21.48143 -0.9087,1.09527 -0.626,2.79447 1.8631,11.19859 1.6138,5.44907 2.9343,10.45952 2.9343,11.1343 0,1.67409 -19.298,19.81157 -21.0813,19.81358 -0.7848,0 -5.1168,-2.00927 -9.6266,-4.46694 l -8.19959,-4.46856 -2.68172,3.06426 c -6.87559,7.85628 -15.6516,25.97804 -19.02747,39.29004 -2.70273,10.65765 -2.66598,11.043 0.99659,10.44853 1.62401,-0.26368 3.43896,-0.96567 4.03324,-1.56012 z"
       id="path4902-3" />
    <path
       inkscape:connector-curvature="0"
       style="fill:none;stroke:#000000;stroke-width:1;stroke-opacity:1"
       d="m 999.91061,742.5476 c 17.34989,-8.56846 30.45429,-17.8113 42.05129,-29.65979 l 4.3472,-4.44143 -2.176,-3.14088 c -3.5398,-5.1094 -5.842,-6.93667 -7.6743,-6.09121 -0.8701,0.40156 -6.9225,5.39981 -13.4496,11.10727 -6.5272,5.70754 -12.4962,10.90641 -13.2646,11.55318 -1.2537,1.05532 -1.849,0.87564 -5.8037,-1.75086 -2.4237,-1.60973 -4.9203,-2.92672 -5.54804,-2.92672 -1.54965,0 -8.16724,7.48113 -10.98848,12.4224 -2.36425,4.14091 -4.7414,12.82774 -4.7414,17.32653 0,2.44492 0.10722,2.52918 2.60721,2.04706 1.43395,-0.27652 8.02215,-3.17707 14.64042,-6.44555 z"
       id="path4900-4" />
    <path
       inkscape:connector-curvature="0"
       style="fill:none;stroke:#000000;stroke-width:1;stroke-opacity:1"
       d="m 964.95639,707.12538 c 4.50677,-8.78167 12.33922,-21.04286 17.50869,-27.40873 1.50789,-1.85689 2.55149,-3.68384 2.3191,-4.05995 -0.23238,-0.37618 -3.43707,-2.52661 -7.12151,-4.77878 -3.68445,-2.25217 -8.21812,-5.74342 -10.07482,-7.75829 -4.64122,-5.03661 -4.6973,-8.76016 -0.2326,-15.44404 3.98849,-5.97097 32.38966,-34.02194 36.28655,-35.83915 8.1092,-3.78146 11.4368,-0.19065 17.883,19.29738 1.764,5.3332 3.4123,9.02762 4.0277,9.02762 0.5729,0 4.9653,-1.98603 9.7608,-4.41342 4.7956,-2.42738 10.9227,-5.14754 13.6158,-6.04481 7.9144,-2.63684 7.6397,-2.09457 6.6944,-13.2142 -1.0827,-12.73715 -2.8835,-25.31398 -3.7483,-26.17902 -0.3823,-0.38242 -4.1083,-1.28129 -8.28,-1.99751 -8.3292,-1.43001 -18.5793,-4.78599 -26.0358,-8.52442 -15.9866,-8.01509 -35.20724,-23.98686 -46.3666,-38.52921 -2.28609,-2.97912 -4.63061,-5.41658 -5.21007,-5.41658 -0.57945,0 -4.55413,2.03368 -8.83263,4.51929 -4.27849,2.4856 -14.45751,8.32072 -22.62006,12.9669 -8.16254,4.64618 -15.35252,8.91477 -15.97772,9.48573 -0.97088,0.88666 -0.65355,2.07844 2.1748,8.16769 1.82136,3.92128 4.30577,10.70907 5.52092,15.08399 2.12274,7.64252 2.20937,8.69376 2.20937,26.81209 0,18.07442 -0.0909,19.18463 -2.18769,26.72864 -2.66816,9.59963 -5.21217,15.75575 -10.0022,24.20394 -3.51163,6.19334 -10.52972,15.67893 -13.30018,17.9762 -2.05265,1.70208 -1.6361,2.80442 2.53437,6.70659 9.84351,9.21018 24.55736,18.40416 36.24827,22.64978 6.81806,2.47606 16.88481,5.25609 17.97256,4.96327 0.39869,-0.10732 2.75393,-4.14877 5.23385,-8.981 z"
       id="path4898-4" />
    <path
       inkscape:connector-curvature="0"
       style="fill:none;stroke:#000000;stroke-width:1;stroke-opacity:1"
       d="m 937.54844,680.63297 c -2.77119,-1.50412 -4.62283,-5.03484 -4.62283,-8.81497 0,-2.25056 0.62058,-3.54942 2.68025,-5.60973 3.33976,-3.34077 6.1509,-4.09869 9.90315,-2.67017 4.0577,1.54481 6.26867,4.80495 6.26867,9.24325 0,3.14827 -0.38607,3.96781 -2.99652,6.36081 -3.3695,3.08882 -7.32192,3.61338 -11.23272,1.49081 z"
       id="path4896-5" />
    <path
       inkscape:connector-curvature="0"
       style="fill:none;stroke:#000000;stroke-width:1;stroke-opacity:1"
       d="m 939.32728,675.57686 c -2.5966,-2.59738 -2.49489,-4.99841 0.29453,-6.95279 2.30223,-1.61302 4.23508,-1.47901 6.13925,0.42578 2.87929,2.88009 1.62745,6.77288 -2.66999,8.30269 -1.00447,0.35757 -2.19056,-0.20199 -3.76379,-1.77568 z"
       id="path4892-1" />
    <path
       inkscape:connector-curvature="0"
       style="fill:none;stroke:#000000;stroke-width:1;stroke-opacity:1"
       d="m 1030.8842,613.36304 c -7.3834,-4.09354 -4.0699,-14.86692 4.5862,-14.91142 4.8341,-0.0249 8.161,3.23916 8.161,8.0067 0,6.40933 -6.8997,10.14668 -12.7472,6.90472 z"
       id="path4888-4" />
    <path
       inkscape:connector-curvature="0"
       style="fill:none;stroke:#000000;stroke-width:1;stroke-opacity:1"
       d="m 1033.2087,609.10062 c -2.1446,-1.50258 -1.882,-4.82487 0.5061,-6.4014 1.5424,-1.01827 1.9443,-0.93575 3.9822,0.81775 1.9984,1.71944 2.1595,2.18577 1.3607,3.93938 -1.1369,2.49606 -3.6321,3.19751 -5.849,1.64427 z"
       id="path4884-8" />
    <path
       inkscape:connector-curvature="0"
       style="fill:none;stroke:#000000;stroke-width:1;stroke-opacity:1"
       d="m 934.9875,603.50727 c -0.82612,-2.1535 0.9508,-3.0598 11.27241,-5.74938 10.94029,-2.85079 13.77398,-3.10067 14.47384,-1.27632 0.78081,2.03537 -0.58076,2.71372 -11.27193,5.61589 -11.4551,3.10955 -13.73699,3.3318 -14.47432,1.40981 z"
       id="path4880-1" />
    <path
       inkscape:connector-curvature="0"
       style="fill:none;stroke:#000000;stroke-width:1;stroke-opacity:1"
       d="m 972.55507,597.31034 c -2.19799,-2.19865 -2.72754,-3.35516 -2.72754,-5.95685 0,-5.98683 6.47461,-10.92657 11.71713,-8.93945 5.37621,2.0378 7.91694,7.21304 5.91482,12.04803 -1.52364,3.67947 -4.44758,5.57662 -8.59487,5.57662 -3.00404,0 -4.02212,-0.44025 -6.30954,-2.72835 z"
       id="path4878-2" />
    <path
       inkscape:connector-curvature="0"
       style="fill:none;stroke:#000000;stroke-width:1;stroke-opacity:1"
       d="m 975.96848,594.55893 c -1.74176,-1.92521 -1.68503,-4.3799 0.1394,-6.03148 1.90676,-1.72612 3.58003,-1.6815 5.22745,0.13943 1.74176,1.9252 1.68503,4.3799 -0.1394,6.03147 -1.90676,1.72612 -3.58003,1.6815 -5.22745,-0.13942 z"
       id="path4874-1" />
    <path
       inkscape:connector-curvature="0"
       style="fill:none;stroke:#000000;stroke-width:1;stroke-opacity:1"
       d="m 933.23046,592.45378 c -0.24586,-0.64089 -0.231,-1.51488 0.0331,-1.94221 0.26402,-0.42732 5.56603,-2.47249 11.78225,-4.54482 10.25681,-3.41935 11.41838,-3.65166 12.55814,-2.51157 2.07236,2.073 0.0893,3.37758 -10.49967,6.90744 -10.52528,3.5086 -13.17667,3.90825 -13.87375,2.09116 z"
       id="path4870-9" />
    <path
       inkscape:connector-curvature="0"
       style="fill:none;stroke:#000000;stroke-width:1;stroke-opacity:1"
       d="m 930.00686,582.7859 c -0.25397,-0.66203 -0.26747,-1.71018 -0.03,-2.32922 0.4754,-1.23918 20.44634,-9.30638 23.03865,-9.30638 2.2664,0 2.99033,2.37796 1.13669,3.73378 -1.61408,1.1806 -21.51491,9.1055 -22.86552,9.1055 -0.44993,0 -1.02586,-0.54165 -1.27982,-1.20368 z"
       id="path4868-4" />
    <path
       inkscape:connector-curvature="0"
       style="fill:none;stroke:#000000;stroke-width:1;stroke-opacity:1"
       d="m 926.5314,572.38232 c -0.55287,-0.66637 -0.82906,-1.66756 -0.61373,-2.22488 0.42873,-1.10971 20.62485,-10.24151 22.65038,-10.24151 1.74662,0 2.45471,2.30652 1.11323,3.62625 -1.06529,1.04804 -16.93668,8.44249 -20.45293,9.52898 -1.06578,0.32933 -2.06367,0.0745 -2.69695,-0.68884 z"
       id="path4866-7" />
    <path
       inkscape:connector-curvature="0"
       style="fill:none;stroke:#000000;stroke-width:1;stroke-opacity:1"
       d="m 1021.5974,695.92334 7.8082,-8.43452 -2.1946,-7.81519 c -1.207,-4.29835 -2.4963,-8.13585 -2.8651,-8.52776 -1.4742,-1.5668 -27.24304,22.74566 -27.24304,25.70327 0,1.23706 12.25554,7.33116 14.96144,7.43957 1.2054,0.0481 4.0766,-2.47125 9.5331,-8.36537 z"
       id="path4864-7" />
    <path
       inkscape:connector-curvature="0"
       style="fill:none;stroke:#000000;stroke-width:1;stroke-opacity:1"
       d="m 1010.6788,693.98767 c -2.9919,-2.99284 -3.1359,-6.56553 -0.3758,-9.32646 4.3359,-4.33719 11.6686,-1.47387 11.6686,4.5565 0,3.1128 -3.8358,7.11562 -6.8189,7.11562 -1.2834,0 -3.0602,-0.93158 -4.4739,-2.34566 z"
       id="path4862-2" />
    <path
       inkscape:connector-curvature="0"
       style="fill:none;stroke:#000000;stroke-width:1;stroke-opacity:1"
       d="m 1012.3707,690.7642 c -1.8145,-3.3915 2.3295,-6.62178 4.7509,-3.70333 0.5291,0.6378 0.8441,1.99194 0.6999,3.00921 -0.3612,2.54876 -4.1972,3.03722 -5.4508,0.69412 z"
       id="path4858-4" />
    <path
       inkscape:connector-curvature="0"
       style="fill:none;stroke:#000000;stroke-width:1;stroke-opacity:1"
       d="m 869.27947,696.67301 c 13.80303,-3.98187 26.71683,-13.27124 36.38816,-26.17537 6.3537,-8.47746 9.10835,-13.51419 12.46862,-22.79814 7.86164,-21.72056 8.21345,-46.03904 0.96811,-66.91974 -8.99089,-25.91128 -26.27979,-44.01452 -49.22586,-51.54449 -4.85626,-1.59364 -7.13115,-1.81342 -18.37777,-1.77544 -12.46841,0.0421 -13.03314,0.11773 -19.74868,2.64544 -17.71175,6.66664 -30.36431,17.9634 -40.35512,36.03084 -22.57173,40.81885 -11.14337,97.10838 24.67626,121.54113 9.225,6.29246 21.54827,10.65083 31.81756,11.25299 5.70082,0.33431 16.27314,-0.78143 21.38872,-2.25722 z"
       id="path4854-2" />
    <path
       inkscape:connector-curvature="0"
       style="fill:none;stroke:#000000;stroke-width:1;stroke-opacity:1"
       d="m 865.61192,674.53479 c 7.69748,-3.80172 19.40809,-15.8288 23.86827,-24.51326 4.77858,-9.30438 6.05242,-13.13132 4.75705,-14.29134 -0.56172,-0.50302 -6.79725,-2.46613 -13.85675,-4.36247 -7.0595,-1.89634 -13.26885,-3.85319 -13.79856,-4.34857 -1.20221,-1.12428 -0.44651,-18.37677 0.88336,-20.16689 0.67798,-0.91262 4.07408,-1.35767 14.68354,-1.92425 7.59088,-0.40536 14.17908,-0.9704 14.64044,-1.25563 2.50908,-1.55116 -0.80783,-15.33266 -6.47544,-26.9049 -3.65079,-7.45428 -5.01632,-9.3114 -11.84332,-16.10675 -7.69847,-7.66281 -13.00107,-10.92613 -16.65421,-10.24932 -0.99255,0.18389 -2.99567,3.31069 -5.99037,9.35078 -2.47453,4.99097 -4.82101,9.39368 -5.2144,9.78379 -0.82792,0.82103 -17.92224,-1.24387 -18.96947,-2.29142 -0.37741,-0.37753 -1.23002,-4.07897 -1.89467,-8.22542 -0.66465,-4.14645 -1.50998,-7.84476 -1.87854,-8.21849 -1.15161,-1.1678 -8.9968,4.57282 -15.29197,11.18972 -4.28778,4.50692 -7.10714,8.43054 -9.74612,13.56343 -4.61914,8.98435 -7.46872,17.82834 -6.22673,19.3253 0.4799,0.5784 4.41502,2.15254 8.74472,3.49808 5.20267,1.61683 8.05588,2.92392 8.41387,3.85449 0.29792,0.77444 0.28898,5.31721 -0.0199,10.09506 -0.64521,9.98127 -0.042,9.3181 -9.97385,10.9659 -8.4063,1.39468 -9.11726,1.86524 -8.51456,5.63544 1.40986,8.81936 7.09434,21.64056 13.35061,30.11191 5.64945,7.64964 15.75448,15.45463 17.55947,13.56277 0.3958,-0.41486 1.65449,-5.41023 2.7971,-11.10085 1.14261,-5.69061 2.49569,-10.85065 3.00687,-11.46676 0.72964,-0.87942 2.41139,-1.00696 7.82422,-0.59339 3.79216,0.28975 7.31104,0.93597 7.81974,1.43605 0.50872,0.50008 2.24167,5.06194 3.851,10.1375 4.73805,14.94275 5.23701,16.0491 7.23818,16.0491 0.97263,0 4.0823,-1.14286 6.91039,-2.53961 z"
       id="path4840-3" />
    <path
       inkscape:connector-curvature="0"
       style="fill:none;stroke:#000000;stroke-width:1;stroke-opacity:1"
       d="m 819.54052,662.93963 c -1.56173,-1.44851 -2.1375,-2.62836 -1.86013,-3.81166 0.22093,-0.94256 0.78381,-4.42203 1.25084,-7.73216 0.46703,-3.31013 1.5551,-10.89333 2.41794,-16.85155 0.86285,-5.95823 1.798,-12.56944 2.07812,-14.69155 0.28013,-2.12213 0.9968,-4.04552 1.5926,-4.27423 1.50162,-0.57639 24.38762,4.11289 25.49908,5.22469 0.6691,0.66929 0.0821,3.76046 -2.26652,11.93625 l -3.16945,11.03306 -6.62107,0.23312 c -7.90729,0.27839 -7.8398,0.20903 -11.09424,11.40249 -3.08524,10.61145 -3.78289,11.28271 -7.82717,7.53154 z"
       id="path4838-8" />
    <path
       inkscape:connector-curvature="0"
       style="fill:none;stroke:#000000;stroke-width:1;stroke-opacity:1"
       d="m 826.2147,653.30643 c 1.55319,-4.83978 3.11604,-9.23567 3.473,-9.76862 0.41536,-0.62016 2.92527,-0.96901 6.97204,-0.96901 4.11276,0 6.53463,-0.34246 6.92837,-0.97972 1.55343,-2.51428 5.71853,-18.73706 5.0021,-19.48289 -0.9919,-1.03258 -21.22393,-5.11689 -22.23136,-4.48791 -0.80863,0.50486 -3.11496,14.37644 -5.84243,35.13974 -0.79065,6.0189 -0.77473,7.61537 0.0863,8.65309 0.58068,0.69991 1.44554,1.14255 1.9219,0.98374 0.47637,-0.1588 2.13693,-4.24863 3.69013,-9.08842 z"
       id="path4836-1" />
    <path
       inkscape:connector-curvature="0"
       style="fill:none;stroke:#000000;stroke-width:1;stroke-opacity:1"
       d="m 834.78871,606.07214 c -5.19893,-0.60243 -9.10041,-1.45244 -9.71182,-2.1159 -0.9184,-0.9966 -12.49139,-29.27311 -12.4859,-30.50704 0.004,-0.96668 10.03229,-10.30356 11.07689,-10.3135 0.5758,-0.006 1.9103,1.94293 2.96557,4.32978 1.05526,2.38683 2.36798,4.61749 2.91714,4.95698 1.6122,0.99671 19.7905,2.48895 21.13708,1.73514 0.67213,-0.37625 3.01947,-3.34856 5.21632,-6.60512 2.19684,-3.25656 4.34055,-6.13509 4.76379,-6.39674 1.05567,-0.65265 9.68502,4.96806 9.68502,6.30831 0,1.61037 -4.02603,10.41173 -5.09195,11.13159 -0.50856,0.34346 -2.42729,0.41636 -4.26381,0.16198 -3.08914,-0.42786 -3.49484,-0.25828 -5.41884,2.26497 -2.86063,3.75159 -2.19338,6.95701 2.03015,9.75284 1.71482,1.13516 3.09551,2.51019 3.0682,3.05561 -0.0273,0.54542 -1.77701,3.69997 -3.88824,7.0101 l -3.83858,6.01841 -4.73558,0.10977 c -2.60456,0.0604 -8.64601,-0.34335 -13.42544,-0.89717 z"
       id="path4834-8" />
    <path
       inkscape:connector-curvature="0"
       style="fill:none;stroke:#000000;stroke-width:1;stroke-opacity:1"
       d="m 851.55495,605.04174 c 0.47104,-0.32425 2.25629,-2.87757 3.9672,-5.67402 l 3.11078,-5.08449 -2.89316,-2.53885 c -4.09114,-3.5901 -4.69596,-7.58259 -1.8096,-11.94545 2.02296,-3.05784 2.29747,-3.20054 5.36505,-2.78897 4.31804,0.57935 5.22467,0.11981 7.1284,-3.61288 2.12617,-4.1689 1.72354,-6.19858 -1.68633,-8.50092 l -2.80776,-1.89579 -2.64783,3.05199 c -1.45632,1.6786 -3.62139,4.59132 -4.81129,6.47268 -1.18988,1.88139 -2.5892,3.58412 -3.10958,3.78388 -1.16588,0.44752 -22.3446,-1.62 -23.42287,-2.2866 -0.42815,-0.2647 -1.39741,-2.1025 -2.15393,-4.084 -0.82584,-2.16306 -1.88082,-3.60276 -2.64002,-3.60276 -1.65396,0 -8.15089,6.3931 -8.1208,7.99102 0.0129,0.68047 2.31933,7.01348 5.12562,14.07337 3.44844,8.67541 5.71616,13.28408 6.99608,14.21804 1.69932,1.24 7.36356,1.99148 21.94917,2.91203 0.88244,0.0557 1.98984,-0.16403 2.46087,-0.48828 z"
       id="path4832-9" />
    <path
       inkscape:connector-curvature="0"
       style="fill:none;stroke:#000000;stroke-width:1;stroke-opacity:1"
       d="m 997.80901,663.1543 c 5.56809,-5.44934 13.19219,-12.16766 16.94259,-14.92963 3.7504,-2.76198 6.9116,-5.26225 7.025,-5.55619 0.4129,-1.0705 -7.024,-22.02449 -9.0353,-25.45749 -3.9715,-6.77892 -7.1333,-5.03618 -26.90629,14.83026 -13.71411,13.77895 -18.09625,19.16899 -18.91541,23.26599 -0.39953,1.99826 0.0228,2.90587 2.61969,5.63027 2.5398,2.66447 16.39909,12.12461 17.76278,12.12461 0.21074,0 4.93886,-4.45852 10.50694,-9.90782 z"
       id="path4800-1" />
    <path
       inkscape:connector-curvature="0"
       style="fill:none;stroke:#000000;stroke-width:1;stroke-opacity:1"
       d="m 1073.5595,668.71345 c 0.5327,-1.59936 0.4902,-3.14481 -0.1341,-4.87169 -2.1589,-5.97217 0.098,-12.44595 4.3399,-12.44595 2.2655,0 4.3751,-2.80704 4.6112,-6.13573 0.1253,-1.76637 -0.2157,-2.34267 -1.4947,-2.52626 -4.2934,-0.61626 -5.4873,0.83032 -10.2335,12.39906 -2.5066,6.10956 -4.5568,11.3646 -4.5561,11.67772 0,1.11324 4.4323,4.67438 5.5503,4.46165 0.6252,-0.11896 1.4879,-1.27036 1.917,-2.5588 z"
       id="path4798-5" />
    <path
       inkscape:connector-curvature="0"
       style="fill:none;stroke:#000000;stroke-width:1;stroke-opacity:1"
       d="m 784.09402,665.07738 c 1.72249,-3.33188 1.57631,-4.46872 -1.51842,-11.80877 -1.50828,-3.57735 -3.75664,-10.42738 -4.99635,-15.22229 -2.10964,-8.15955 -2.25514,-9.77184 -2.27131,-25.16836 -0.0163,-15.54648 0.10905,-16.93531 2.281,-25.27733 5.13844,-19.73536 14.21496,-35.1423 28.36447,-48.14731 l 3.4923,-3.20982 -1.62888,-7.36261 c -0.8959,-4.04945 -1.86778,-12.08403 -2.15976,-17.85463 -0.29196,-5.77061 -0.82068,-10.49201 -1.17493,-10.49201 -1.12541,0 -9.18174,10.54381 -14.40882,18.85769 -9.57515,15.22967 -17.21019,34.735 -20.90207,53.39881 -1.53603,7.76523 -1.82499,11.87175 -1.86078,26.44547 -0.0475,19.34706 0.34261,24.51449 2.63544,34.90681 3.048,13.81519 10.12382,33.30191 12.09226,33.30191 0.45755,0 1.38269,-1.06542 2.05585,-2.36756 z"
       id="path4796-6" />
    <path
       inkscape:connector-curvature="0"
       style="fill:none;stroke:#000000;stroke-width:1;stroke-opacity:1"
       d="m 1065.6923,624.93961 c 1.7649,-0.40611 7.1798,-1.13365 12.0332,-1.61674 6.5154,-0.64853 9.0868,-1.22522 9.8272,-2.20395 1.2742,-1.68439 1.4516,-37.55959 0.1896,-38.33978 -0.4472,-0.27648 -3.6976,0.60999 -7.223,1.96995 -3.5254,1.35995 -10.4697,3.12671 -15.4317,3.92611 -8.6455,1.39284 -9.0195,1.53466 -8.966,3.39926 0.1605,5.58518 2.9351,30.28222 3.5768,31.83726 0.8268,2.00349 1.3582,2.09462 5.9939,1.02789 z"
       id="path4790-3" />
    <path
       inkscape:connector-curvature="0"
       style="fill:none;stroke:#000000;stroke-width:1;stroke-opacity:1"
       d="m 1074.1156,581.63644 c 2.8679,-0.9377 6.8389,-2.5071 8.8243,-3.48754 3.4749,-1.71594 3.5995,-1.90129 3.3283,-4.95304 -0.1549,-1.74373 -0.608,-4.02893 -1.0068,-5.07823 -0.6414,-1.68747 -1.0257,-1.83104 -3.3283,-1.24309 -1.4317,0.36559 -9.8231,0.64569 -18.6474,0.62246 -15.1608,-0.0399 -16.442,-0.16394 -23.2643,-2.25168 -9.3909,-2.87378 -22.0658,-8.94746 -29.8523,-14.30496 -3.4093,-2.34572 -9.9427,-7.86312 -14.51868,-12.26089 -15.98421,-15.36159 -26.61541,-32.24474 -31.85193,-50.58328 -2.59339,-9.08223 -2.22696,-8.68174 -7.35685,-8.04061 -6.64028,0.8299 -6.6695,0.85457 -6.6695,5.62933 0,16.51671 16.78843,45.57774 38.33028,66.35036 16.17218,15.59464 32.39128,25.28163 50.31458,30.05073 6.4367,1.7127 8.4817,1.88499 18.852,1.58823 9.0159,-0.258 12.805,-0.71634 16.8466,-2.03779 z"
       id="path4788-0" />
    <path
       inkscape:connector-curvature="0"
       style="fill:none;stroke:#000000;stroke-width:1;stroke-opacity:1"
       d="m 1069.0018,561.94899 c 0.5308,-1.38353 -6.6397,-23.59757 -8.1301,-25.1869 -1.1511,-1.22753 -5.3852,-0.634 -6.6863,0.93729 -1.0827,1.30742 -3.64,23.04309 -2.8041,23.83241 1.1178,1.05537 3.5573,1.40322 10.5257,1.50088 5.1598,0.0723 6.7442,-0.16971 7.0948,-1.08368 z"
       id="path4786-5" />
    <path
       inkscape:connector-curvature="0"
       style="fill:none;stroke:#000000;stroke-width:1;stroke-opacity:1"
       d="m 1056.1677,555.70304 c -2.861,-4.5382 -2.1176,-10.70072 1.5264,-12.65149 1.865,-0.9984 2.2204,-0.91554 4.0884,0.95303 3.94,3.94118 2.164,13.50398 -2.5079,13.50398 -1.1694,0 -2.4307,-0.73299 -3.1069,-1.80552 z"
       id="path4784-2" />
    <path
       inkscape:connector-curvature="0"
       style="fill:none;stroke:#000000;stroke-width:1;stroke-opacity:1"
       d="m 1057.2147,551.78987 c -0.6627,-1.23867 -0.6751,-2.22849 -0.045,-3.61105 1.1393,-2.50112 3.1501,-2.42613 4.1308,0.15404 1.5197,3.99829 -2.1392,7.09446 -4.0853,3.45701 z"
       id="path4780-4" />
    <path
       inkscape:connector-curvature="0"
       style="fill:none;stroke:#000000;stroke-width:1;stroke-opacity:1"
       d="m 1082.9256,560.74156 c 0.362,-0.58583 -0.051,-3.08327 -0.9497,-5.74567 -1.5428,-4.57006 -3.1945,-5.96885 -4.1394,-3.50575 -0.9452,2.46396 -2.0583,0.98519 -5.6304,-7.48014 -2.6682,-6.3231 -3.8583,-10.4183 -4.3779,-15.06396 -0.783,-7.00069 -2.2386,-10.41695 -7.4045,-17.37803 l -3.4241,-4.61413 -6.1977,0 -6.1976,0 -3.6972,-5.41657 c -2.0334,-2.97912 -3.6963,-5.80501 -3.6953,-6.27976 8e-4,-0.47475 0.9043,-1.71129 2.0074,-2.74786 1.103,-1.03656 2.0055,-2.34548 2.0055,-2.90872 0,-2.35781 -28.005,-23.56643 -30.015,-23.33116 -2.6938,0.31531 -0.5852,6.48527 -3.2282,7.35434 -3.3518,1.10212 -4.7491,1.53515 -8.54287,2.53653 -1.44318,0.38094 -2.14386,-0.79649 -4.55313,-2.23415 -2.65697,-1.58547 -8.84374,0.23312 -10.59008,0.56912 -1.81521,0.34925 -16.15087,3.53182 -16.67398,3.55931 -0.11028,0.006 -0.20055,1.20668 -0.20055,2.6686 0,8.29505 13.32376,35.85979 17.33328,35.85979 0.70339,0 5.80689,-2.16664 11.3411,-4.81473 5.53423,-2.6481 10.55563,-4.81474 11.15863,-4.81474 1.0591,0 10.7066,12.43153 10.7066,13.79621 0,0.36996 -2.1859,5.03452 -4.8575,10.36567 -2.6717,5.33117 -4.745,10.27743 -4.6075,10.99174 0.6745,3.50329 19.0732,13.89115 30.7237,17.34652 8.0383,2.38406 8.5384,2.04207 8.9133,-6.09601 0.5409,-11.73801 1.274,-17.56073 2.346,-18.63305 1.4919,-1.49234 11.4808,-3.33897 12.5073,-2.3122 0.4325,0.43262 2.9786,7.38042 5.6581,15.43954 l 4.8717,14.65295 4.3849,-0.36373 c 2.4117,-0.20007 4.673,-0.83005 5.0251,-1.39996 z"
       id="path4776-7" />
    <path
       inkscape:connector-curvature="0"
       style="fill:none;stroke:#000000;stroke-width:1;stroke-opacity:1"
       d="m 1026.7848,538.65328 c -0.6618,-0.16322 -2.557,-0.51774 -4.2116,-0.78779 -5.2348,-0.85445 -6.4838,0.0441 25.3463,-18.23315 5.2264,-3.00105 9.8291,-5.25457 10.2283,-5.00782 0.3991,0.24675 0.7257,2.36966 0.7257,4.71759 0,4.23844 -0.039,4.30612 -5.5168,9.47477 -6.9844,6.59064 -12.3323,9.22857 -19.753,9.7435 -3.0885,0.21432 -6.157,0.25612 -6.8189,0.0929 z"
       id="path4774-5" />
    <path
       inkscape:connector-curvature="0"
       style="fill:none;stroke:#000000;stroke-width:1;stroke-opacity:1"
       d="m 1042.8292,534.4238 c 5.8509,-2.79143 14.4398,-11.12826 14.4398,-14.01595 0,-4.25558 0.049,-4.2751 -23.8576,9.49817 -4.518,2.60292 -8.2182,5.15884 -8.2227,5.67983 -0.022,2.55675 11.4266,1.80257 17.6405,-1.16205 z"
       id="path4772-0" />
    <path
       inkscape:connector-curvature="0"
       style="fill:none;stroke:#000000;stroke-width:1;stroke-opacity:1"
       d="m 1017.6295,532.7459 c -0.2342,-0.37894 0.5568,-3.89972 1.7576,-7.82393 l 2.1833,-7.13494 8.8244,-4.36022 c 5.5922,-2.76317 9.8528,-4.36079 11.6321,-4.36176 5.0517,-0.002 13.6377,1.21067 13.6377,1.92732 0,0.62921 -11.7165,7.80188 -30.3469,18.57787 -7.3634,4.25909 -7.0889,4.14569 -7.6882,3.17566 z"
       id="path4770-3" />
    <path
       inkscape:connector-curvature="0"
       style="fill:none;stroke:#000000;stroke-width:1;stroke-opacity:1"
       d="m 1036.0343,521.22508 c 7.7082,-4.50866 14.0148,-8.66137 14.0148,-9.22823 0,-0.67677 -1.3084,-1.07434 -3.8105,-1.15782 -5.9122,-0.19727 -6.2098,-0.11664 -14.9138,4.04132 l -8.1966,3.91559 -1.3806,4.3808 c -1.5952,5.06211 -1.7002,6.24588 -0.5543,6.24588 0.4545,0 7.1329,-3.68889 14.841,-8.19754 z"
       id="path4768-3" />
    <path
       inkscape:connector-curvature="0"
       style="fill:none;stroke:#000000;stroke-width:1;stroke-opacity:1"
       d="m 1014.8337,509.62245 c -2.8789,-3.23103 -3.8259,-4.83243 -3.2605,-5.5138 1.2087,-1.45687 20.6919,-10.17239 21.5517,-9.64084 1.2348,0.76334 4.9103,7.79333 4.4577,8.5259 -0.4414,0.71437 -17.5439,11.18227 -18.2697,11.18227 -0.232,0 -2.2477,-2.04909 -4.4792,-4.55353 z"
       id="path4766-1" />
    <path
       inkscape:connector-curvature="0"
       style="fill:none;stroke:#000000;stroke-width:1;stroke-opacity:1"
       d="m 1026.5558,508.02922 c 9.1462,-5.476 9.2503,-5.58893 7.7784,-8.43614 -0.6685,-1.29318 -1.6846,-2.53128 -2.2579,-2.75136 -1.3159,-0.50511 -18.1269,7.31014 -18.1269,8.427 0,1.05321 4.7514,6.4999 5.6702,6.4999 0.3798,0 3.5011,-1.68274 6.9362,-3.7394 z"
       id="path4764-9" />
    <path
       inkscape:connector-curvature="0"
       style="fill:none;stroke:#000000;stroke-width:1;stroke-opacity:1"
       d="m 989.86591,499.33937 c 3.1321,-1.62016 3.7984,-4.07247 1.82732,-6.7255 -2.08929,-2.81212 -5.42736,-3.16158 -7.91048,-0.82812 -2.44838,2.30084 -2.43452,4.29648 0.047,6.77883 2.29764,2.29833 2.93306,2.3799 6.03606,0.77479 z"
       id="path4760-1" />
    <path
       inkscape:connector-curvature="0"
       style="fill:none;stroke:#000000;stroke-width:1;stroke-opacity:1"
       d="m 940.1504,546.74635 c 12.57207,-7.24328 22.96727,-13.70295 23.10048,-14.35482 0.13319,-0.65189 -1.35563,-3.66292 -3.30851,-6.69119 -8.07927,-12.52832 -13.66593,-26.14358 -15.2349,-37.12888 l -0.97686,-6.83964 -22.04848,-0.10242 c -22.9323,-0.10646 -34.36859,-1.08757 -50.58533,-4.3395 -4.46716,-0.8958 -8.4346,-1.43552 -8.81654,-1.19939 -0.38196,0.23612 -5.12959,1.65103 -10.55029,3.14422 -5.42071,1.4932 -13.1048,3.96667 -17.07577,5.49657 -9.69027,3.73343 -24.65887,10.80847 -25.42759,12.01858 -1.30356,2.05204 -0.67734,20.29918 0.97178,28.31641 0.88889,4.32143 1.79389,8.03491 2.01106,8.25216 0.21719,0.21725 3.58256,-1.28624 7.47862,-3.34107 15.40833,-8.12656 30.51845,-10.42798 45.99224,-7.00505 17.79352,3.93606 33.47844,14.49486 44.90853,30.23163 2.68132,3.69156 5.28645,6.71196 5.7892,6.71196 0.50275,0 11.20031,-5.92632 23.77236,-13.16958 z"
       id="path4758-2" />
    <path
       inkscape:connector-curvature="0"
       style="fill:none;stroke:#000000;stroke-width:1;stroke-opacity:1"
       d="m 815.74043,515.84262 c -2.64084,-2.64164 -2.85732,-3.96504 -1.17946,-7.21065 1.48084,-2.86447 5.04404,-4.43001 7.74491,-3.40282 2.5937,0.98641 3.80203,2.5137 4.41524,5.58073 0.41497,2.07545 0.0861,2.91309 -1.93906,4.93887 -3.13945,3.14038 -5.96669,3.16973 -9.04163,0.0938 z"
       id="path4748-2" />
    <path
       inkscape:connector-curvature="0"
       style="fill:none;stroke:#000000;stroke-width:1;stroke-opacity:1"
       d="m 1009.9765,530.4257 c 4.0078,-8.46311 4.0608,-8.67234 2.7968,-11.05347 -0.7086,-1.33489 -2.5192,-3.7709 -4.0234,-5.41338 -3.1284,-3.41589 -2.0637,-3.57463 -14.25423,2.12489 -4.30189,2.01127 -7.82161,4.02751 -7.82161,4.48051 0,1.03557 9.97617,12.40474 13.93844,15.88467 1.6301,1.43174 3.4848,2.60317 4.1214,2.60317 0.6833,0 2.8308,-3.53364 5.2426,-8.62639 z"
       id="path4740-4" />
    <path
       inkscape:connector-curvature="0"
       style="fill:none;stroke:#000000;stroke-width:1;stroke-opacity:1"
       d="m 998.41438,528.56193 c -4.018,-3.1615 -2.1464,-10.33174 3.03652,-11.63294 2.7076,-0.67979 6.7425,1.64451 7.4352,4.28308 0.8653,3.29583 0.3755,5.20969 -1.8443,7.20749 -2.5052,2.25456 -5.8724,2.31012 -8.62742,0.14237 z"
       id="path4738-1" />
    <path
       inkscape:connector-curvature="0"
       style="fill:none;stroke:#000000;stroke-width:1;stroke-opacity:1"
       d="m 1000.3525,525.86073 c -0.60746,-0.73218 -0.81172,-2.07062 -0.50348,-3.29915 0.41618,-1.65882 0.93298,-2.01753 2.61588,-1.81594 1.1535,0.13815 2.4928,0.88315 2.9762,1.65551 1.8477,2.95179 -2.8564,6.14999 -5.0886,3.45958 z"
       id="path4734-8" />
    <path
       inkscape:connector-curvature="0"
       style="fill:none;stroke:#000000;stroke-width:1;stroke-opacity:1"
       d="m 1009.1932,498.41264 c 10.114,-5.13903 18.8041,-9.84399 19.3114,-10.45544 1.4048,-1.6932 -2.0047,-4.83185 -6.9389,-6.3877 l -4.129,-1.30194 -7.4605,3.31247 c -4.1032,1.82186 -8.0466,3.32267 -8.763,3.33513 -0.7164,0.0124 -3.54122,-1.16068 -6.27731,-2.60698 -3.92743,-2.07602 -5.18176,-2.42255 -5.9581,-1.64598 -0.77635,0.77658 -0.40457,1.22774 1.76587,2.14304 3.44593,1.45317 7.68639,5.8254 8.37915,8.63952 0.85865,3.48796 -1.50481,7.24055 -6.44754,10.23704 -4.41167,2.67455 -5.48845,4.07455 -3.13389,4.07455 0.69459,0 9.53793,-4.20467 19.65182,-9.34371 z"
       id="path4730-4" />
    <path
       inkscape:connector-curvature="0"
       style="fill:none;stroke:#000000;stroke-width:1;stroke-opacity:1"
       d="m 1052.0546,502.13915 c 0,-0.6897 -0.7781,-1.24292 -1.8222,-1.29556 -2.6644,-0.13433 -5.1131,-2.67337 -4.8328,-5.01109 0.2596,-2.16468 -0.743,-2.88918 -2.4785,-1.79099 -2.9289,1.85352 2.9601,10.01049 6.9004,9.55785 1.3362,-0.15349 2.2331,-0.73997 2.2331,-1.46021 z"
       id="path4728-0" />
    <path
       inkscape:connector-curvature="0"
       style="fill:none;stroke:#000000;stroke-width:1;stroke-opacity:1"
       d="m 831.49697,480.58757 c 4.4406,-1.75331 10.6678,-3.97597 13.83822,-4.93926 3.17044,-0.96327 5.76444,-2.08628 5.76444,-2.49557 0,-0.81725 -2.6352,-1.94699 -7.7073,-3.30422 -3.25784,-0.87175 -3.37098,-0.82823 -10.00456,3.84797 -3.6902,2.60132 -7.8931,5.76925 -9.33979,7.03984 -2.6055,2.28834 -3.56,4.3291 -1.62757,3.47981 0.55152,-0.24239 4.63599,-1.87525 9.07656,-3.62857 z"
       id="path4724-0" />
    <path
       inkscape:connector-curvature="0"
       style="fill:none;stroke:#000000;stroke-width:1;stroke-opacity:1"
       d="m 952.57989,475.30818 c 23.21283,-2.84736 46.09315,-9.248 63.06021,-17.64071 9.3157,-4.60798 13.0513,-7.57151 12.233,-9.70473 -0.2518,-0.65613 -0.7142,-1.19298 -1.0276,-1.19298 -0.3135,0 -4.6971,1.85272 -9.7413,4.11715 -18.73435,8.41005 -39.75609,14.28687 -62.91988,17.58978 -10.76368,1.53478 -14.57232,1.67755 -36.09969,1.35318 -19.90111,-0.29985 -25.80204,-0.66376 -34.09417,-2.10252 -20.32377,-3.52641 -37.46703,-9.02512 -52.34029,-16.78818 -6.49456,-3.38982 -8.84691,-4.27151 -9.54184,-3.57637 -2.51795,2.5187 4.07025,8.73043 14.95251,14.09813 13.23733,6.52933 35.32285,12.04883 56.5562,14.13425 5.07402,0.49834 10.48898,1.04657 12.03324,1.21828 5.83856,0.64921 37.6956,-0.37261 46.92961,-1.50528 z"
       id="path4720-0" />
    <path
       inkscape:connector-curvature="0"
       style="fill:none;stroke:#000000;stroke-width:1;stroke-opacity:1"
       d="m 952.981,465.67526 c 25.48676,-3.66576 48.0076,-10.21313 65.8737,-19.15109 6.6606,-3.33212 8.3851,-4.54853 8.5997,-6.06599 0.1477,-1.04394 -0.033,-2.19162 -0.4011,-2.5504 -0.3683,-0.35879 -4.4199,1.14625 -9.0037,3.34451 -21.07422,10.10663 -50.46516,17.66652 -73.82369,18.98884 -12.9322,0.73209 -29.25555,0.72879 -40.98228,-0.009 -22.04106,-1.38534 -51.61251,-8.55568 -72.84497,-17.66308 -4.1054,-1.76098 -7.70262,-2.96348 -7.99378,-2.67223 -1.2663,1.26669 1.85568,3.60879 11.53225,8.65147 16.59263,8.64677 35.85222,14.23095 60.12619,17.4331 14.87883,1.96277 44.19942,1.81006 58.91768,-0.30686 z"
       id="path4718-4" />
    <path
       inkscape:connector-curvature="0"
       style="fill:none;stroke:#000000;stroke-width:1;stroke-opacity:1"
       d="m 923.93962,453.91412 0.23949,-3.68874 -10.26718,-0.56692 c -5.64696,-0.31181 -11.35018,-0.63795 -12.67384,-0.72474 -2.3742,-0.1557 -2.40665,-0.10376 -2.40665,3.85446 l 0,4.01226 3.20887,0.4999 c 1.76487,0.27494 7.36033,0.4555 12.43435,0.40123 l 9.22548,-0.0986 0.23948,-3.68877 z"
       id="path4716-6" />
    <path
       inkscape:connector-curvature="0"
       style="fill:none;stroke:#000000;stroke-width:1;stroke-opacity:1"
       d="m 951.00879,456.74971 c 15.92627,-2.08251 36.51619,-6.49787 38.21215,-8.19433 0.7825,-0.78274 -2.47696,-15.79833 -4.45983,-20.54544 -1.87858,-4.4974 -3.2877,-4.82975 -14.41123,-3.39888 -5.36131,0.68963 -11.73332,1.4789 -14.16001,1.75391 -5.40735,0.61281 -5.26692,0.52629 -7.2884,4.4899 -3.74253,7.33816 -11.41518,13.33331 -18.78177,14.67544 -1.76387,0.32137 -3.47308,1.00254 -3.79824,1.51372 -0.71635,1.12611 -0.80673,7.92373 -0.12885,9.69078 0.65605,1.71014 11.80036,1.71685 24.81618,0.0149 z"
       id="path4714-8" />
    <path
       inkscape:connector-curvature="0"
       style="fill:none;stroke:#000000;stroke-width:1;stroke-opacity:1"
       d="m 959.31792,446.96806 c -5.90291,-5.50783 -4.75809,-13.09758 2.54681,-16.88428 4.06508,-2.10725 7.66089,-1.86377 11.35723,0.76906 8.73529,6.22192 4.05988,19.12674 -6.9296,19.12674 -3.22211,0 -4.19894,-0.42179 -6.97444,-3.01152 z"
       id="path4712-6" />
    <path
       inkscape:connector-curvature="0"
       style="fill:none;stroke:#000000;stroke-width:1;stroke-opacity:1"
       d="m 963.69619,445.97406 c -4.6185,-1.86436 -5.61595,-7.63834 -1.95252,-11.30284 3.68876,-3.68988 9.30654,-2.77221 11.56328,1.88886 2.80705,5.79765 -3.43143,11.90839 -9.61076,9.41398 z"
       id="path4708-6" />
    <path
       inkscape:connector-curvature="0"
       style="fill:none;stroke:#000000;stroke-width:1;stroke-opacity:1"
       d="m 895.86747,452.16967 c 0.2156,-3.35754 0.0235,-3.89773 -1.60443,-4.51449 -2.58798,-0.98041 -3.85486,0.33011 -3.85486,3.9877 0,2.07474 0.45565,3.34064 1.40389,3.90038 2.68408,1.58442 3.79647,0.65905 4.0554,-3.37359 z"
       id="path4706-9" />
    <path
       inkscape:connector-curvature="0"
       style="fill:none;stroke:#000000;stroke-width:1;stroke-opacity:1"
       d="m 887.03879,450.1802 -0.24058,-4.61412 -5.74643,-1.84775 c -3.16054,-1.01626 -5.9366,-2.34346 -6.16903,-2.94935 -0.56849,-1.48189 0.85663,-6.45195 2.16039,-7.53429 0.76731,-0.63699 3.06385,-0.3297 8.58835,1.1492 11.64303,3.11681 10.72354,4.27455 11.19442,-14.09515 0.38321,-14.94978 0.49896,-15.85679 2.59436,-20.33091 3.21849,-6.87212 6.34108,-10.36704 12.00953,-13.44153 4.87694,-2.64519 5.35344,-2.73927 13.87477,-2.73927 7.74364,0 9.31561,0.24115 12.83544,1.96899 5.3727,2.63737 11.32814,8.33269 13.86746,13.26177 1.83577,3.56339 2.11539,5.21587 2.42339,14.32182 0.28306,8.36839 0.58229,10.38351 1.59995,10.77413 0.68847,0.26428 6.33062,-0.15263 12.5381,-0.92645 8.23955,-1.02713 11.873,-1.1824 13.45961,-0.57517 2.73749,1.04771 4.85372,5.16354 6.64984,12.93327 0.76521,3.31012 1.63527,7.07199 1.93347,8.35969 0.70278,3.03485 2.69827,4.3584 4.41826,2.93051 1.04289,-0.86579 1.27055,-2.96986 1.27055,-11.74233 0,-6.35613 0.3296,-10.89129 0.81326,-11.1903 0.44729,-0.27651 3.3258,-1.19922 6.3966,-2.05045 7.2269,-2.00327 19.1375,-7.51418 19.7627,-9.14404 0.8754,-2.28182 -6.3344,-19.25786 -12.135,-28.57284 -3.2539,-5.2254 -10.7571,-14.39156 -11.78063,-14.39156 -0.48675,0 -2.55221,1.55994 -4.5899,3.46653 -2.03769,1.9066 -5.4064,4.46397 -7.48603,5.68309 -5.14575,3.01651 -17.07025,7.18718 -26.20625,9.1658 l -7.54884,1.63487 -4.41384,-4.24284 c -5.10082,-4.90322 -5.24293,-6.88044 -0.49453,-6.88044 4.35251,0 18.19447,-2.99461 24.07347,-5.20813 9.14087,-3.44163 14.78462,-8.452 14.78462,-13.12536 0,-1.76034 -5.28608,-6.78621 -6.65684,-6.32916 -0.48977,0.16331 -1.1809,1.41798 -1.53584,2.78814 -1.10246,4.25583 -6.87202,8.51157 -15.26867,11.26251 -12.70726,4.16317 -21.82619,5.25899 -43.52365,5.2302 -20.84754,-0.0277 -28.16139,-0.89565 -39.85578,-4.72995 -7.47903,-2.45219 -12.26007,-5.76368 -13.86343,-9.60219 -1.28598,-3.07873 -1.36,-3.07501 -5.8453,0.29278 -3.20696,2.40797 -3.35018,4.77303 -0.49458,8.16774 4.37978,5.20663 15.6863,9.21566 32.55592,11.54359 8.66341,1.19552 10.25553,1.64494 10.25553,2.89494 0,0.37567 -1.43268,2.49607 -3.18374,4.71199 l -3.18376,4.02895 -4.63785,-0.42473 c -15.04097,-1.37741 -35.83561,-8.38831 -41.68745,-14.0549 -1.52909,-1.48067 -3.0432,-2.2858 -3.77234,-2.00592 -3.66879,1.40827 -14.86073,21.01382 -19.43146,34.03919 -2.67206,7.6147 -2.44665,8.54274 2.68347,11.04795 1.8117,0.88471 3.59318,1.90625 3.95885,2.27009 0.36566,0.36384 0.84535,5.05655 1.06596,10.42826 0.32724,7.96825 -0.29767,8.99428 1.60443,9.76674 3.82713,1.55424 8.84377,3.46014 12.83544,4.81472 0.93388,0.31692 1.24452,-1.65637 1.43158,-9.17939 0.12553,-5.04865 0.57706,-9.59981 1.00337,-10.11365 0.97755,-1.17822 12.02988,0.39602 13.94553,1.98634 1.03551,0.85966 1.26827,2.94062 1.26827,11.33919 0,7.36094 0.28519,10.46393 1.00277,10.91092 1.5628,0.97346 12.69301,3.33493 16.08434,3.41258 l 3.04836,0.0698 -0.24061,-4.6141 z"
       id="path4704-9" />
    <path
       inkscape:connector-curvature="0"
       style="fill:none;stroke:#000000;stroke-width:1;stroke-opacity:1"
       d="m 863.53397,440.36134 c -0.20108,-5.49305 2.08072,-8.83525 -3.60997,-9.81928 -5.67836,-0.9819 -5.69912,-0.94847 -5.44225,8.76612 0.21995,5.03982 -1.50185,8.09151 3.43671,9.59163 5.63461,1.71154 5.61551,1.74059 5.61551,-8.53847 z"
       id="path4702-1" />
    <path
       inkscape:connector-curvature="0"
       style="fill:none;stroke:#000000;stroke-width:1;stroke-opacity:1"
       d="m 923.40602,447.6757 c 0.27945,-0.0568 0.68437,-0.77774 0.8998,-1.60183 0.28398,-1.08629 1.4586,-1.65839 4.27104,-2.08028 8.1106,-1.21661 15.50762,-6.87023 18.83579,-14.39637 0.88945,-2.01133 2.37461,-3.80619 3.61856,-4.37315 l 2.10993,-0.96163 -0.3085,-10.21201 c -0.27559,-9.12238 -0.53326,-10.64357 -2.41492,-14.25651 -2.57672,-4.9475 -8.31374,-10.37438 -13.34011,-12.61891 -4.64721,-2.07523 -15.3924,-2.82889 -19.8954,-1.39544 -8.30285,2.64307 -14.97071,9.65805 -17.49437,18.4051 -1.6047,5.56192 -1.8668,41.31124 -0.30994,42.27373 1.27394,0.78756 21.18504,1.79629 24.02812,1.2173 z"
       id="path4700-5" />
    <path
       inkscape:connector-curvature="0"
       style="fill:none;stroke:#000000;stroke-width:1;stroke-opacity:1"
       d="m 918.72096,433.6207 c -17.38976,-5.69567 -19.24213,-29.89514 -2.9258,-38.22277 5.29431,-2.70215 14.33621,-2.79654 19.23884,-0.20086 12.16339,6.43986 15.30561,21.96086 6.47708,31.99357 -1.74094,1.97841 -4.58037,4.31922 -6.30982,5.20178 -4.0683,2.07611 -12.07078,2.67254 -16.4803,1.22828 z"
       id="path4698-3" />
    <path
       inkscape:connector-curvature="0"
       style="fill:none;stroke:#000000;stroke-width:1;stroke-opacity:1"
       d="m 912.78459,418.3858 c 0.50217,-0.60525 1.43898,-2.87202 2.08179,-5.03722 1.95285,-6.57793 7.56823,-10.71385 14.5463,-10.71385 1.38284,0 2.99801,-0.58305 3.58925,-1.29566 0.92158,-1.11078 0.80844,-1.51154 -0.79287,-2.8086 -3.41973,-2.76994 -11.01153,-1.29577 -16.19855,3.14546 -6.17535,5.28745 -9.76857,17.81036 -5.11035,17.81036 0.53426,0 1.38226,-0.49522 1.88443,-1.10049 z"
       id="path4696-2" />
    <path
       inkscape:connector-curvature="0"
       style="fill:none;stroke:#000000;stroke-width:1;stroke-opacity:1"
       d="m 896.57184,443.86727 c 0.27376,-0.71367 0.17219,-2.21124 -0.22574,-3.32793 -0.64322,-1.80502 -1.65832,-2.24026 -9.14678,-3.9218 -4.63279,-1.04029 -8.87451,-1.72068 -9.42604,-1.51198 -1.11952,0.42364 -1.38285,4.91487 -0.32646,5.56795 1.51001,0.93352 14.31885,4.40887 16.39595,4.44863 1.34467,0.0257 2.42907,-0.4729 2.72907,-1.25487 z"
       id="path4694-2" />
    <path
       inkscape:connector-curvature="0"
       style="fill:none;stroke:#000000;stroke-width:1;stroke-opacity:1"
       d="m 1007.924,442.29224 c 8.8176,-3.55662 17.454,-7.86983 18.6541,-9.31629 1.5588,-1.87881 -0.7879,-15.89703 -2.6612,-15.89703 -0.2227,0 -1.9247,0.78879 -3.7823,1.75288 -1.8576,0.96408 -7.1679,3.06512 -11.8007,4.66898 l -8.42329,2.91609 -0.23023,8.31668 c -0.20624,7.44997 0.037,10.43131 0.85142,10.43131 0.1487,0 3.4752,-1.29269 7.3922,-2.87262 z"
       id="path4692-5" />
    <path
       inkscape:connector-curvature="0"
       style="fill:none;stroke:#000000;stroke-width:1;stroke-opacity:1"
       d="m 831.67666,431.34523 c 0.51673,-5.00299 0.91429,-6.5286 -3.04071,-9.14667 -2.2295,-1.47587 -3.5334,-1.90454 -4.09235,-1.3454 -0.97318,0.97346 -2.61282,11.9688 -2.01655,13.52307 0.52791,1.37614 6.12881,4.37751 7.71496,4.13425 0.94217,-0.1445 1.25353,-1.69955 1.43465,-7.16525 z"
       id="path4688-6" />
    <path
       inkscape:connector-curvature="0"
       style="fill:none;stroke:#000000;stroke-width:1;stroke-opacity:1"
       d="m 896.66546,385.62269 c 2.00701,-2.00762 0.82975,-2.79164 -5.65561,-3.76648 -18.20682,-2.73673 -32.91209,-8.90779 -34.70701,-14.56475 -0.66717,-2.10269 -2.13319,-1.97823 -4.33689,0.3682 -1.2549,1.33617 -1.65532,2.45685 -1.28965,3.60933 0.59722,1.88224 5.44715,5.38509 10.85213,7.83794 11.86643,5.38514 32.45123,9.20235 35.13703,6.51576 z"
       id="path4686-0" />
    <path
       inkscape:connector-curvature="0"
       style="fill:none;stroke:#000000;stroke-width:1;stroke-opacity:1"
       d="m 963.5793,384.21859 c 9.19516,-2.16362 15.23106,-4.35681 21.23769,-7.71691 5.71184,-3.19521 10.68144,-7.7323 10.68144,-9.75184 0,-1.34253 -2.99279,-5.04032 -4.07935,-5.04032 -0.32495,0 -1.36743,1.60474 -2.31661,3.56608 -3.40325,7.03227 -13.44073,11.78943 -33.11316,15.69363 -2.53701,0.5035 -4.61274,1.13225 -4.61274,1.39721 0,1.11382 2.76638,3.41674 4.10435,3.41674 0.79697,0 4.44123,-0.70408 8.09838,-1.56459 z"
       id="path4684-2" />
    <path
       inkscape:connector-curvature="0"
       style="fill:none;stroke:#000000;stroke-width:1;stroke-opacity:1"
       d="m 908.91837,369.26145 c 0.62969,-0.75896 1.19548,-4.15351 1.39779,-8.38633 0.33268,-6.96017 0.29951,-7.11923 -1.56133,-7.48658 -5.17038,-1.0207 -13.66065,-2.24252 -13.84503,-1.99244 -5.13384,6.96375 -9.36544,13.83899 -9.03992,14.68752 0.44483,1.15956 5.65966,2.46976 14.28128,3.58811 7.52877,0.97658 7.6201,0.97232 8.76721,-0.41028 z"
       id="path4682-6" />
    <path
       inkscape:connector-curvature="0"
       style="fill:none;stroke:#000000;stroke-width:1;stroke-opacity:1"
       d="m 939.42707,369.17106 c 0.74766,-0.74961 0.46401,-2.35706 -1.27445,-7.22209 -1.22989,-3.44183 -2.6954,-6.75342 -3.2567,-7.35909 -1.43624,-1.54979 -18.72846,-1.3079 -20.33767,0.28449 -1.20101,1.18847 -2.2617,12.20682 -1.39309,14.47109 0.43806,1.14189 2.04296,1.27215 12.90025,1.047 8.27168,-0.17155 12.72012,-0.57817 13.36166,-1.2214 z"
       id="path4680-3" />
    <path
       inkscape:connector-curvature="0"
       style="fill:none;stroke:#000000;stroke-width:1;stroke-opacity:1"
       d="m 958.35656,366.57162 c 6.86916,-1.78555 11.78069,-4.10029 12.08809,-5.69699 0.27218,-1.41377 -13.48891,-12.80686 -15.46872,-12.80686 -0.69114,0 -2.59599,0.67319 -4.23297,1.49598 -1.637,0.82278 -4.87271,1.94238 -7.19046,2.488 -2.31776,0.54561 -4.39436,1.28375 -4.61465,1.6403 -0.51931,0.84051 4.4055,13.84441 5.54926,14.65276 1.10869,0.78357 6.86417,0.0478 13.86945,-1.77319 z"
       id="path4678-7" />
    <path
       inkscape:connector-curvature="0"
       style="fill:none;stroke:#000000;stroke-width:1;stroke-opacity:1"
       d="m 886.53365,358.09847 c 2.54811,-3.53081 4.64278,-6.98074 4.65483,-7.66652 0.0122,-0.68579 -1.19619,-2.42788 -2.68502,-3.87133 l -2.70693,-2.62445 -6.53656,3.2875 c -7.74324,3.89439 -9.70939,5.66814 -9.70939,8.75924 0,3.81579 6.66961,9.20693 10.78782,8.71995 0.91715,-0.10842 3.47559,-2.83586 6.19525,-6.60439 z"
       id="path4676-9" />
    <path
       inkscape:connector-curvature="0"
       style="fill:none;stroke:#000000;stroke-width:1;stroke-opacity:1"
       d="m 976.3102,355.86897 c 1.67744,-3.68267 -0.1954,-5.9226 -8.21751,-9.8282 -7.2213,-3.51574 -9.80533,-4.23494 -10.59923,-2.95001 -0.21753,0.35208 -0.10819,1.10526 0.24309,1.67374 1.27356,2.06127 14.93544,12.85457 16.31981,12.89315 0.7816,0.0217 1.79583,-0.78314 2.25384,-1.78868 z"
       id="path4674-3" />
    <path
       inkscape:connector-curvature="0"
       style="fill:none;stroke:#000000;stroke-width:1;stroke-opacity:1"
       d="m 941.25624,349.27686 c 7.88994,-1.67207 12.52697,-4.06643 12.52697,-6.46838 0,-2.36291 -1.15689,-2.97242 -9.22547,-4.86046 -4.97908,-1.16512 -9.47485,-1.49552 -20.05539,-1.47393 -12.15548,0.0248 -14.60923,0.26924 -22.57697,2.24923 -4.91662,1.22177 -9.57799,2.68856 -10.35859,3.25952 -3.17816,2.32463 1.37019,5.41045 10.71876,7.27209 7.57412,1.50828 31.89248,1.52196 38.97069,0.0219 z"
       id="path4672-9" />
    <path
       inkscape:connector-curvature="0"
       style="fill:none;stroke:#000000;stroke-width:1;stroke-opacity:1"
       d="m 817.33286,513.25749 c -1.23094,-1.75568 -0.55608,-3.62538 1.75445,-4.8607 3.06123,-1.63671 6.49219,3.07427 4.0302,5.53382 -1.38372,1.38234 -4.60644,1.00734 -5.78465,-0.67312 z"
       id="path4752-2-3" />
    <path
       inkscape:connector-curvature="0"
       style="fill:none;stroke:#000000;stroke-width:1;stroke-opacity:1"
       d="m 901.32173,518.06419 c -1.39907,-1.99806 -0.63204,-4.12588 1.99408,-5.53176 3.47937,-1.86265 7.37893,3.4987 4.58067,6.2978 -1.57272,1.57318 -5.23561,1.14641 -6.57475,-0.76604 z"
       id="path5399-7" />
    <path
       inkscape:connector-curvature="0"
       style="fill:none;stroke:#00009f;stroke-width:4.25196838;stroke-miterlimit:4;stroke-dasharray:none;stroke-opacity:1"
       d="m -65.180976,703.69664 c -26.61566,-3.74796 -45.143394,-9.35605 -64.273364,-19.45457 -15.38622,-8.12229 -27.0297,-16.77273 -40.26934,-29.91802 -22.40684,-22.24702 -37.60212,-50.34772 -44.80411,-82.85644 -2.07919,-9.38519 -2.18615,-10.95198 -2.19851,-32.20678 -0.0124,-21.35268 0.0843,-22.77836 2.18553,-32.20676 8.99668,-40.36978 30.69818,-74.57928 62.50388,-98.52887 4.2844,-3.22614 7.78586,-6.11424 7.78102,-6.41801 -0.005,-0.30377 -2.24202,-1.83187 -4.9715,-3.3958 -2.7295,-1.5639 -6.79216,-4.55665 -9.02816,-6.65054 l -4.06548,-3.80704 0.47167,-12.84763 c 0.70247,-19.13589 4.36286,-33.26873 13.00666,-50.2192 13.15647,-25.79974 38.95955,-47.14107 65.010194,-54.94583 17.26928,-6.01448 33.04916,-6.25703 51.08884,-2.77951 34.2991696,6.6529 61.713455,28.06603 78.063595,60.97506 6.96099,14.01088 10.65898,29.33965 11.30263,46.85145 l 0.46789,12.72965 -2.21354,2.05519 c -1.21744,1.13035 -4.91591,3.44503 -8.2188,5.1437 -3.3029,1.69865 -6.0068,3.53262 -6.00872,4.07544 -9.9e-4,0.54282 0.81758,1.42176 1.82113,1.95317 4.74444,2.51246 17.65318,12.89493 25.62059,20.60658 21.29484,20.6113 37.134071,47.02031 44.258571,73.79303 4.67888,17.58234 4.92953,19.80033 4.92953,43.61592 0,21.38613 -0.096,22.78279 -2.24576,32.65537 -10.94956,50.28614 -42.713191,91.17018 -88.793881,114.2896 -23.1558754,11.61767 -46.252065,17.16887 -73.174595,17.58752 -8.69726,0.13519 -16.90797,0.0916 -18.246,-0.0965 z"
       id="path4908-8-5" />
    <path
       id="path4892-1-9"
       style="fill:#ffffff;fill-opacity:1;stroke:none;stroke-width:1;stroke-opacity:1"
       d="m 452.33155,574.3542 c -2.10791,-0.1641 -4.10306,2.29274 -2.73833,4.84221 1.25715,2.34849 5.10244,1.85911 5.46466,-0.69552 0.14457,-1.01962 -0.17019,-2.37541 -0.70078,-3.01467 -0.60706,-0.7313 -1.32292,-1.07731 -2.02555,-1.13202 z m -72.46601,-18.45745 c -1.01185,-0.0701 -2.07355,0.30206 -3.22791,1.11042 -2.79727,1.95889 -2.89911,4.36376 -0.2952,6.96712 1.57765,1.57731 2.76781,2.13795 3.77511,1.77954 4.30954,-1.53333 5.56571,-5.43543 2.67833,-8.32216 -0.95478,-0.95458 -1.91848,-1.46478 -2.93033,-1.53492 z M 263.46155,505.81748 c 3.06508,-0.0659 20.95726,3.59369 21.88978,4.564 0.71845,0.74754 -3.45805,17.00704 -5.01586,19.5271 -0.39485,0.63872 -2.82347,0.98331 -6.9478,0.98331 -4.05816,0 -6.57687,0.34973 -6.9934,0.97132 -0.35796,0.53418 -1.92475,4.93901 -3.48231,9.78993 -1.55757,4.85093 -3.22299,8.94965 -3.7007,9.10881 -0.47771,0.15918 -1.34484,-0.28418 -1.92715,-0.9857 -0.86342,-1.04011 -0.87927,-2.63955 -0.0864,-8.67232 2.73514,-20.81109 5.04734,-34.71568 5.85824,-35.2217 0.0631,-0.0394 0.20125,-0.0604 0.40559,-0.0648 z m 208.93825,-15.5411 c -0.40519,0.0423 -0.82393,0.2696 -1.40396,0.65234 -2.39477,1.58016 -2.65703,4.91185 -0.50639,6.41789 2.22313,1.55682 4.72529,0.85176 5.86544,-1.65004 0.80101,-1.75765 0.63843,-2.22423 -1.36556,-3.94763 -1.27731,-1.09846 -1.91421,-1.54304 -2.58953,-1.47256 z m -56.45365,-14.81441 c -0.86502,-0.0231 -1.76306,0.39886 -2.71913,1.2639 -1.82956,1.65539 -1.88586,4.11413 -0.13919,6.04377 1.65205,1.82511 3.32932,1.87159 5.24145,0.1415 1.82956,-1.65537 1.88587,-4.11653 0.13919,-6.04616 -0.82601,-0.91256 -1.65731,-1.37996 -2.52232,-1.40301 z m -117.21758,-24.32375 2.81513,1.90187 c 3.41946,2.30764 3.82169,4.34032 1.68955,8.51882 -1.9091,3.74129 -2.81682,4.20216 -7.14701,3.62147 -3.07621,-0.41252 -3.352,-0.26844 -5.38065,2.79643 -2.89449,4.37291 -2.28831,8.37404 1.81434,11.9724 l 2.90153,2.54462 -3.11992,5.09643 c -1.71572,2.80289 -3.50433,5.36141 -3.97669,5.68641 -0.47236,0.325 -1.58459,0.54517 -2.46952,0.48925 -14.62665,-0.92266 -20.30569,-1.67589 -22.00979,-2.91875 -1.28352,-0.93611 -3.55926,-5.55543 -7.01741,-14.25081 -2.81418,-7.07614 -5.12536,-13.4225 -5.13826,-14.10449 -0.0302,-1.60162 6.48436,-8.01039 8.14297,-8.01039 0.76135,0 1.81897,1.44382 2.64713,3.61186 0.75866,1.98607 1.73059,3.82863 2.15994,4.09394 1.0813,0.66813 22.31899,2.73894 23.48815,2.29038 0.52185,-0.20021 1.92668,-1.90602 3.11991,-3.79174 1.19325,-1.88569 3.36346,-4.80498 4.82387,-6.48744 l 2.65673,-3.06026 z m 197.92016,-16.68749 c -0.76986,-0.0287 -1.55991,0.57887 -2.13114,1.8323 -0.63147,1.38576 -0.61898,2.37755 0.0456,3.61907 1.9516,3.64583 5.62066,0.54432 4.09668,-3.46317 -0.49171,-1.29305 -1.24127,-1.9595 -2.01114,-1.9882 z m -58.0544,-25.69798 c -0.87729,0.0938 -1.24692,0.60692 -1.55996,1.8539 -0.30911,1.23135 -0.10279,2.57342 0.50639,3.30728 2.23845,2.6966 6.95515,-0.50938 5.10225,-3.46797 -0.48482,-0.77414 -1.8288,-1.52116 -2.98551,-1.65963 -0.42192,-0.0505 -0.77074,-0.0648 -1.06317,-0.0336 z m 51.96894,-0.1291 c -1.58865,0.1262 -5.84024,2.57701 -17.21498,9.12694 -3.4394,1.98053 -6.25471,3.92401 -6.25817,4.32043 -0.017,1.94539 8.69863,1.37271 13.4291,-0.88302 4.45416,-2.12397 10.99143,-8.46821 10.99143,-10.66541 0,-1.21426 0.006,-1.97466 -0.94738,-1.89894 z m -149.01988,-8.44728 c -0.43537,0.0263 -0.87662,0.14556 -1.31276,0.37893 -2.63352,1.4091 -3.40215,3.54226 -1.99914,5.54491 1.3429,1.91686 5.01546,2.34427 6.59261,0.76746 2.45537,-2.45485 -0.23311,-6.8751 -3.28071,-6.6913 z m 138.05634,0.23455 c -3.43468,-0.0497 -4.41264,0.37833 -10.73621,3.39761 l -6.80576,3.25065 -1.14654,3.63391 c -1.32452,4.20095 -1.41252,5.18478 -0.46101,5.18478 0.37731,0 5.92182,-3.0615 12.3219,-6.80316 6.4001,-3.74164 11.63636,-7.18858 11.63636,-7.65901 0,-0.56163 -1.08596,-0.89182 -3.16343,-0.9611 -0.61362,-0.0204 -1.15464,-0.0366 -1.64531,-0.0437 z m -222.67801,-4.33569 c -0.38304,0.0231 -0.77303,0.13072 -1.15676,0.33577 -2.31703,1.23817 -2.99357,3.11127 -1.75915,4.87099 1.1815,1.68433 4.41302,2.05945 5.80064,0.67393 2.16029,-2.15706 -0.20336,-6.04218 -2.88473,-5.88069 z m 211.04521,-10.18024 c -2.48408,0.37822 -15.00644,6.25152 -15.00644,7.13841 0,0.89211 4.02612,5.50683 4.80475,5.50684 0.32192,0 2.96852,-1.42582 5.87967,-3.1679 7.75112,-4.63839 7.83895,-4.73482 6.59155,-7.14652 -0.56657,-1.09537 -1.42669,-2.14441 -1.91257,-2.33083 -0.0697,-0.0267 -0.19135,-0.0252 -0.35696,0 z m -63.62207,-65.65457 c -1.91466,-0.0773 -3.90386,0.65558 -5.52225,2.27361 -3.67374,3.67293 -2.67315,9.46101 1.95835,11.32966 6.19672,2.50016 12.45309,-3.62399 9.63814,-9.43499 -1.27299,-2.62789 -3.61252,-4.06886 -6.07424,-4.16828 z m -40.41488,-35.3464 c -3.52484,0.14631 -7.71907,1.76745 -10.97011,4.5496 -6.19272,5.29962 -9.79518,17.85068 -5.12385,17.85068 0.53576,0 1.38516,-0.49655 1.88874,-1.10322 0.50359,-0.60665 1.44333,-2.87827 2.08795,-5.04846 1.95835,-6.59307 7.5891,-10.73727 14.58679,-10.73727 1.38674,0 3.007,-0.58564 3.59991,-1.29989 0.92418,-1.11334 0.81144,-1.51559 -0.79437,-2.81563 -1.28602,-1.04112 -3.16016,-1.48359 -5.27506,-1.39581 z"
       inkscape:connector-curvature="0" />
  </g>
</svg>
